<svg width="40" height="40" viewBox="0 0 40 40" fill="none" xmlns="http://www.w3.org/2000/svg">
<path d="M19.9397 0.320496L1.42188 6.83737L4.34781 31.0989L19.9594 39.6792L35.6512 30.983L38.5762 6.72206L19.9397 0.320496Z" fill="#B3B3B3"/>
<path d="M36.7309 8.12416L19.8984 2.38385V37.6292L34.005 29.822L36.7309 8.12416Z" fill="#A6120D"/>
<path d="M3.5 8.22786L6.00812 29.926L19.8969 37.6294V2.38348L3.5 8.22786Z" fill="#DD1B16"/>
<path d="M24.532 21.1471L19.8986 23.314H15.0148L12.7189 29.0559L8.44922 29.1353L19.8986 3.664L24.532 21.1471ZM24.0839 20.0562L19.9292 11.8309L16.5211 19.9146H19.8983L24.0839 20.0562Z" fill="#F2F2F2"/>
<path d="M19.8984 3.66388L19.9291 11.8308L23.7962 19.9208H19.9069L19.8984 23.3086L25.2762 23.3139L27.7894 29.1358L31.875 29.2114L19.8984 3.66388Z" fill="#B3B3B3"/>
</svg>
