<svg width="35" height="35" viewBox="0 0 35 35" fill="none" xmlns="http://www.w3.org/2000/svg">
<path d="M27.3604 0C29.1744 4.11403e-05 30.9146 0.721194 32.1973 2.00391C33.4797 3.28654 34.2001 5.02607 34.2002 6.83984V27.3604C34.2001 29.1741 33.4797 30.9136 32.1973 32.1963C30.9146 33.479 29.1744 34.2002 27.3604 34.2002H6.83984C5.02589 34.2001 3.28657 33.479 2.00391 32.1963C0.721251 30.9136 5.40688e-05 29.1743 0 27.3604V6.83984C8.02258e-05 5.02588 0.721244 3.28658 2.00391 2.00391C3.28657 0.72124 5.02589 9.31561e-05 6.83984 0H27.3604ZM5.69531 9.96875V24.1455C9.88509 24.1455 13.4228 24.6062 15.5273 23.4609H15.5098C16.1568 23.099 16.6871 22.5598 17.0371 21.9062C17.3872 21.2525 17.5419 20.5118 17.4844 19.7725C17.4268 19.0332 17.1589 18.326 16.7119 17.7344C16.2649 17.1427 15.6574 16.691 14.9619 16.4336C15.7164 16.0627 16.3086 15.4268 16.624 14.6475C16.9394 13.8682 16.9559 13.0002 16.6719 12.209C16.1247 10.3974 14.0908 9.96879 12.3809 9.96875H5.69531ZM28.5742 19.1016C28.5742 15.3397 26.1115 12.6716 22.2305 13.5098C20.8915 13.8505 19.7383 14.7007 19.0166 15.8789C18.295 17.0571 18.0613 18.4708 18.3662 19.8184C18.4183 20.3546 18.5693 20.8767 18.8105 21.3584C19.2028 22.0807 19.7561 22.703 20.4277 23.1768C21.0993 23.6504 21.8707 23.9636 22.6826 24.0908C23.4947 24.218 24.326 24.1558 25.1104 23.9102C25.8945 23.6645 26.6118 23.2415 27.2061 22.6738C27.6504 22.1275 27.9969 21.5087 28.2314 20.8447C28.2665 20.7255 28.1299 20.7256 28.1299 20.7256H25.9062C25.8554 20.7256 25.7695 20.8291 25.7695 20.8291C25.4773 21.3252 25.0271 21.7092 24.4912 21.9199C23.9553 22.1306 23.3644 22.1555 22.8125 21.9912C21.7672 21.8369 21.3058 20.776 21.1006 19.7676C21.0674 19.5275 21.2392 19.4258 21.4268 19.4258H28.249C28.2929 19.4315 28.338 19.4273 28.3799 19.4131C28.4217 19.3989 28.4599 19.3749 28.4912 19.3438C28.5224 19.3125 28.5463 19.2742 28.5605 19.2324C28.5748 19.1905 28.5799 19.1454 28.5742 19.1016ZM10.8818 17.4121C12.2146 17.4121 13.0478 17.2971 13.6826 18.0459C13.8562 18.2676 13.9801 18.5241 14.0459 18.7979C14.1117 19.0716 14.1183 19.3564 14.0645 19.6328C14.0106 19.9093 13.8973 20.1713 13.7334 20.4004C13.5696 20.6292 13.3583 20.8198 13.1143 20.96C12.7555 21.1109 12.3706 21.1903 11.9814 21.1934H8.74902C8.58241 21.1934 8.51562 21.1933 8.51562 20.9775V17.6455C8.51562 17.479 8.51598 17.4121 8.7334 17.4121H10.8818ZM23.4941 15.5156C23.8114 15.5057 24.1291 15.5436 24.4365 15.6289H24.4189C24.6392 15.6907 24.8429 15.801 25.0146 15.9521C25.1865 16.1033 25.3227 16.2912 25.4121 16.502C25.5624 16.7877 25.6483 17.1025 25.668 17.4248C25.6855 17.6822 25.6852 17.6826 25.4805 17.6826H21.3213C21.0991 17.6826 21.0986 17.6473 21.0986 17.46C21.1329 17.2132 21.2058 16.9751 21.3096 16.752C21.4077 16.519 21.5409 16.3064 21.7148 16.1367C21.7436 16.1045 21.7722 16.0718 21.8027 16.041C21.8369 16.0187 21.8713 15.9966 21.9062 15.9756C22.2133 15.7532 22.5184 15.6601 22.8447 15.5977C22.918 15.5808 22.9919 15.5655 23.0664 15.5537C23.2083 15.5314 23.3512 15.5189 23.4941 15.5156ZM8.7334 12.0479C10.5976 12.0478 12.1129 11.9372 12.8652 12.3809C13.6191 12.8228 13.6508 13.4328 13.6631 13.6152C13.6754 13.7976 13.67 14.0588 13.3193 14.6953C12.9686 15.332 11.3986 15.3447 10.2656 15.3447H8.7666C8.5825 15.3447 8.51566 15.278 8.51562 15.0957V12.2803C8.51562 12.1139 8.51608 12.0479 8.7334 12.0479ZM20.8115 10.7041C20.6572 10.7041 20.6572 10.7566 20.6572 10.8916V12.0049C20.6572 12.2434 20.6572 12.2441 20.8975 12.2441H26.2656C26.3568 12.2441 26.3516 12.1416 26.3516 12.1416V10.7041H20.8115Z" fill="#D1D1D1"/>
</svg>
