<svg width="65" height="64" viewBox="0 0 65 64" fill="none" xmlns="http://www.w3.org/2000/svg">
<path d="M25.2442 39.9838C24.8841 39.9838 24.5794 39.8931 24.3301 39.6814C23.9146 39.2882 23.8315 38.6229 24.1362 37.8064L27.3772 29.0362C27.8204 27.8266 29.0115 26.6169 30.2304 26.0423C30.9229 25.7096 31.56 25.6794 32.0309 25.8911L37.765 28.5221C38.1528 28.7036 38.3744 29.0362 38.4298 29.5201C38.5129 30.6391 37.5434 32.1814 36.1584 33.1491L27.1833 39.2882C26.4908 39.7419 25.7982 39.9838 25.2442 39.9838ZM31.4215 25.9516C31.0891 25.9516 30.729 26.0423 30.3135 26.2237C29.1223 26.7681 27.9866 27.9475 27.5711 29.0967L24.3301 37.8669C24.0531 38.5927 24.1085 39.1673 24.4686 39.4999C24.9949 39.9838 26.0199 39.8024 27.0725 39.0766L36.0476 32.9374C37.5434 31.9092 38.2913 30.4274 38.2359 29.5201C38.2082 29.127 38.042 28.8548 37.7096 28.7036L31.9755 26.0725C31.8093 25.9818 31.6431 25.9516 31.4215 25.9516Z" fill="#DF393C"/>
<path d="M25.0202 41.0422C24.6877 41.0422 24.383 40.9514 24.1337 40.77C23.6628 40.4071 23.552 39.7115 23.8013 38.8647L26.6545 29.3385C27.3193 27.1309 29.9786 25.0442 31.5299 25.5583L38.095 27.7357C38.5382 27.8869 38.8152 28.2196 38.8983 28.7337C39.0645 29.8829 38.1227 31.6067 36.7099 32.7256L27.3193 40.0744C26.4883 40.7095 25.685 41.0422 25.0202 41.0422ZM31.0035 25.7095C29.5631 25.7095 27.4024 27.5543 26.8484 29.399L24.0229 38.9252C23.8013 39.6813 23.8844 40.2861 24.2722 40.5885C24.8817 41.0724 26.0451 40.8002 27.1808 39.893L36.5714 32.5442C38.1227 31.3345 38.8152 29.7014 38.6767 28.7639C38.6213 28.3406 38.3997 28.0684 38.0119 27.9474L31.4468 25.77C31.3083 25.7397 31.1697 25.7095 31.0035 25.7095Z" fill="#DF393C"/>
<path d="M24.8803 42.1917C24.5756 42.1917 24.2709 42.1009 24.0492 41.9497C23.5506 41.5868 23.3567 40.9215 23.5506 40.0143L25.8221 29.732C26.3761 27.3731 29.1462 24.9235 30.8914 25.2864L38.3429 26.9195C38.8692 27.0405 39.2016 27.3731 39.3124 27.9175C39.5894 29.1272 38.703 30.9719 37.2348 32.3026L27.4841 40.9215C26.5977 41.738 25.6559 42.1917 24.8803 42.1917ZM30.5035 25.4981C28.8692 25.4981 26.5146 27.736 26.0437 29.7925L23.7722 40.0747C23.606 40.861 23.7445 41.4659 24.16 41.7683C24.7418 42.1614 25.9606 42.0102 27.3733 40.7703L37.124 32.1513C38.7307 30.73 39.3678 28.9457 39.1462 28.0082C39.0354 27.5546 38.7584 27.2824 38.3152 27.1614L30.8636 25.5284C30.7251 25.4981 30.6143 25.4981 30.5035 25.4981Z" fill="#DF393C"/>
<path d="M24.8573 43.4009C24.5526 43.4009 24.3033 43.3404 24.054 43.1892C23.5 42.8565 23.2506 42.161 23.3891 41.2235L24.9958 30.2457C25.3559 27.7053 28.2091 24.8626 30.1482 25.1045L38.5692 26.0723C39.1786 26.1328 39.5664 26.4957 39.7603 27.0703C40.1482 28.3102 39.3171 30.3364 37.8213 31.8182L27.7936 41.8586C26.7964 42.8565 25.716 43.4009 24.8573 43.4009ZM29.9542 25.3162C28.126 25.3162 25.5498 27.9775 25.2174 30.2759L23.6108 41.284C23.5 42.1005 23.6939 42.7356 24.1648 43.0078C24.8573 43.4009 26.2146 43.159 27.6828 41.6771L37.6828 31.6368C39.2894 30.034 39.8434 28.0985 39.5664 27.1307C39.4279 26.6469 39.0678 26.3445 38.5692 26.284L30.1482 25.3162C30.0928 25.3162 30.0096 25.3162 29.9542 25.3162Z" fill="#DF393C"/>
<path d="M24.9099 44.671C24.6329 44.671 24.3836 44.6106 24.162 44.5198C23.5526 44.2174 23.2479 43.5219 23.3033 42.5541L24.1066 30.8505C24.3005 28.1589 27.1814 24.8928 29.3421 24.9231L38.7327 25.1045C39.4252 25.1045 39.8961 25.4372 40.1454 26.0723C40.644 27.3424 39.8961 29.5198 38.4002 31.1831L28.2063 42.7053C27.126 43.9755 25.8795 44.671 24.9099 44.671ZM29.3144 25.165C27.2922 25.165 24.4944 28.3404 24.3005 30.8807L23.4972 42.5843C23.4418 43.4311 23.6911 44.0662 24.2174 44.3081C25.1592 44.7618 26.7382 44.0662 28.0401 42.5843L38.234 31.0622C39.8684 29.2174 40.3116 27.2214 39.9238 26.1932C39.7299 25.6489 39.3144 25.3767 38.705 25.3767L29.3144 25.1952C29.3421 25.165 29.3421 25.165 29.3144 25.165Z" fill="#DF393C"/>
<path d="M25.0749 46.0018C24.8256 46.0018 24.604 45.9716 24.4101 45.8808C23.7453 45.6087 23.3575 44.9131 23.3575 43.9454L23.2189 31.6066C23.1912 28.7639 26.0998 25.0441 28.4821 24.8929L38.8976 24.1369C39.6732 24.0764 40.255 24.4091 40.5597 25.0744C41.1691 26.405 40.5597 28.6429 39.0638 30.5482L28.7868 43.6429C27.5957 45.1248 26.1829 46.0018 25.0749 46.0018ZM39.0361 24.3486C38.9807 24.3486 38.9253 24.3486 38.8699 24.3486L28.4544 25.1046C26.2106 25.2558 23.3575 28.9151 23.3852 31.6066L23.5237 43.9454C23.5237 44.8526 23.8561 45.4575 24.4378 45.6691C25.5181 46.0925 27.2356 45.1853 28.5929 43.4917L38.8699 30.397C40.4766 28.3405 40.8367 26.2236 40.3381 25.1651C40.0888 24.6208 39.6455 24.3486 39.0361 24.3486Z" fill="#DF393C"/>
<path d="M25.3518 47.3929C25.1579 47.3929 24.964 47.3626 24.7978 47.3022C24.0499 47.0905 23.6067 46.3949 23.4959 45.3969L22.2216 32.4534C21.9446 29.4897 24.8255 25.3163 27.4571 24.8929L38.9252 23.0481C39.784 22.8969 40.4765 23.2296 40.8643 23.9251C41.5845 25.2558 41.0859 27.6751 39.6455 29.7618L29.4516 44.5199C28.205 46.3042 26.6261 47.3929 25.3518 47.3929ZM38.9252 23.1691L38.9529 23.2901L27.4848 25.1046C24.9917 25.4977 22.1662 29.6106 22.4156 32.4231L23.6621 45.3667C23.7452 46.3042 24.1607 46.8788 24.7978 47.0905C26.0444 47.4836 27.8726 46.3647 29.23 44.3989L39.4239 29.6409C40.8089 27.6147 41.3075 25.3465 40.615 24.0763C40.2826 23.4413 39.6732 23.1691 38.8698 23.3203L38.9252 23.1691Z" fill="#DF393C"/>
<path d="M25.7681 48.8141C25.6296 48.8141 25.4634 48.8141 25.3249 48.7839C24.5216 48.6024 23.9675 47.9371 23.7459 46.9089L21.2252 33.4512C20.6434 30.3665 23.4689 25.7093 26.3498 24.9835L38.8706 21.8988C39.8678 21.6568 40.6711 21.929 41.1421 22.6851C42.0008 24.046 41.6407 26.556 40.2556 28.8242L30.2833 45.3363C29.0091 47.4835 27.2362 48.8141 25.7681 48.8141ZM38.8706 22.05L38.8983 22.171L26.3775 25.2254C23.6351 25.8907 20.865 30.4875 21.4191 33.421L23.9675 46.8484C24.1337 47.7859 24.6324 48.3907 25.3803 48.5419C26.8207 48.8443 28.7598 47.4835 30.1171 45.2758L40.0894 28.7637C41.4191 26.556 41.7792 24.1367 40.9758 22.8665C40.5326 22.171 39.8401 21.929 38.926 22.171L38.8706 22.05Z" fill="#DF393C"/>
<path d="M26.3755 50.2657C26.2924 50.2657 26.1816 50.2657 26.0984 50.2355C25.212 50.1447 24.5472 49.4794 24.2425 48.4512L20.2536 34.6004C19.8381 33.179 20.1428 31.304 21.0292 29.429C22.0264 27.3423 23.6054 25.7395 25.1289 25.2254L38.7023 20.7496C39.8104 20.3867 40.7522 20.6286 41.3339 21.4451C42.3311 22.806 42.1372 25.4068 40.8353 27.8867L31.2508 46.1831C29.9766 48.6629 28.0098 50.2657 26.3755 50.2657ZM39.6442 20.8403C39.3671 20.8403 39.0624 20.9008 38.7577 20.9915L25.1843 25.4673C23.7162 25.9512 22.1926 27.5238 21.1954 29.55C20.3367 31.3645 20.032 33.2093 20.4198 34.5701L24.4087 48.421C24.6857 49.3887 25.2674 49.9633 26.0984 50.054C27.7328 50.2355 29.755 48.6326 31.0569 46.1528L40.6414 27.8564C41.8879 25.4976 42.0818 22.9572 41.1677 21.6568C40.8076 21.0822 40.2813 20.8403 39.6442 20.8403Z" fill="#DF393C"/>
<path d="M27.1281 51.7174C27.1004 51.7174 27.1004 51.7174 27.0727 51.7174C26.0754 51.6872 25.2998 51.0823 24.8566 50.0239L19.2056 35.9009C18.6516 34.5097 18.7624 32.5743 19.538 30.6085C20.4522 28.2194 22.0865 26.3142 23.804 25.5884L38.4577 19.54C39.7043 19.0259 40.7846 19.2376 41.5048 20.0843C42.6405 21.4452 42.6405 24.167 41.4494 26.7981L32.4743 46.9694C31.2001 49.7819 29.0117 51.7174 27.1281 51.7174ZM38.4854 19.661L38.5131 19.7819L23.8594 25.8303C22.225 26.4956 20.6184 28.3706 19.732 30.6993C18.984 32.6347 18.8732 34.5097 19.3995 35.8404L25.0505 49.9634C25.4383 50.9614 26.1585 51.5057 27.0727 51.5057C28.9009 51.536 31.0062 49.661 32.2527 46.9089L41.2278 26.7376C42.3635 24.167 42.4189 21.5662 41.3109 20.2658C40.6461 19.4795 39.6488 19.2981 38.4854 19.7819V19.661Z" fill="#DF393C"/>
<path d="M28.0916 53.1692C27.0943 53.1692 26.2356 52.6249 25.7093 51.6269L18.2024 37.4132C17.4821 36.0523 17.4267 34.0866 18.0362 31.9999C18.8118 29.3386 20.4738 27.0704 22.3575 26.1329L38.0362 18.3305C39.3935 17.635 40.64 17.7862 41.5265 18.6934C42.8561 20.0846 43.0223 22.8063 41.9697 25.6491L33.7979 47.6652C32.6622 50.7499 30.3907 53.018 28.3132 53.1692C28.2301 53.1692 28.1747 53.1692 28.0916 53.1692ZM39.6705 18.1188C39.1719 18.1188 38.6456 18.27 38.1193 18.5422L22.4406 26.3446C20.6123 27.2519 19.0057 29.4596 18.2301 32.0604C17.6206 34.0866 17.6761 35.9918 18.3686 37.2922L25.8755 51.5059C26.4018 52.5342 27.2328 53.018 28.2855 52.9273C30.3076 52.7761 32.4683 50.5684 33.604 47.5745L41.7481 25.5281C42.7453 22.8063 42.6068 20.1148 41.3603 18.8144C40.9171 18.3608 40.3353 18.1188 39.6705 18.1188Z" fill="#DF393C"/>
<path d="M29.2539 54.6206C28.2566 54.6206 27.3979 54.1367 26.7885 53.2295L17.204 39.0763C16.3176 37.7759 16.0683 35.7497 16.5115 33.542C17.1209 30.6388 18.7829 28.0077 20.8051 26.8283L37.4533 17.0601C38.9491 16.1831 40.3896 16.2436 41.4422 17.1811C42.9381 18.542 43.3259 21.3545 42.4394 24.3182L35.3757 48.2698C34.4062 51.5662 32.1347 54.167 29.8633 54.5601C29.6417 54.5904 29.4478 54.6206 29.2539 54.6206ZM37.5087 17.1509L37.5641 17.2416L20.9159 27.0097C18.9491 28.1589 17.3148 30.7295 16.7331 33.5722C16.2899 35.7194 16.5392 37.6549 17.3702 38.9251L26.9547 53.0783C27.6472 54.1065 28.6444 54.5299 29.8079 54.3484C31.9962 53.9553 34.2123 51.415 35.1541 48.2093L42.2178 24.288C43.0766 21.3847 42.7165 18.663 41.3037 17.3928C40.3065 16.4855 38.9768 16.4553 37.5364 17.3021L37.5087 17.1509Z" fill="#DF393C"/>
<path d="M30.6717 55.9816C29.7022 55.9816 28.8158 55.5582 28.1233 54.7416L16.2673 40.8304C15.187 39.5602 14.7161 37.5037 15.0208 35.2054C15.4086 32.0602 17.0429 29.0965 19.1759 27.6449L36.7382 15.7296C38.3726 14.6408 40.0069 14.5804 41.2812 15.5481C42.9432 16.8485 43.5803 19.7215 42.8878 22.8364L37.1814 48.6328C36.4058 52.1408 34.162 55.0743 31.7244 55.7699C31.3366 55.9513 31.0041 55.9816 30.6717 55.9816ZM36.849 15.9715L19.2867 27.8868C17.2091 29.3082 15.6025 32.2114 15.2147 35.2658C14.9377 37.5037 15.3809 39.4997 16.4058 40.7094L28.2618 54.6207C29.1482 55.6489 30.3393 56.0118 31.6413 55.6187C34.0235 54.9533 36.1842 52.0804 36.9598 48.663L42.6662 22.8667C43.331 19.8425 42.7493 17.0602 41.1427 15.79C39.9515 14.8525 38.4003 14.913 36.849 15.9715Z" fill="#DF393C"/>
<path d="M32.3083 57.3124C31.3665 57.3124 30.4801 56.9495 29.7598 56.2539L15.4108 42.8567C14.1089 41.6471 13.4163 39.5604 13.5272 37.1108C13.6657 33.7842 15.2169 30.4878 17.4607 28.7337L35.854 14.4898C37.5992 13.1289 39.4828 12.9172 40.9787 13.9454C42.8623 15.2156 43.7211 18.0583 43.2501 21.3547L39.2335 48.9958C38.6795 52.7156 36.5742 55.9212 33.9704 56.9495C33.3609 57.1914 32.8346 57.3124 32.3083 57.3124ZM38.8734 13.5523C37.9316 13.5523 36.9067 13.9454 35.9371 14.7015L17.5438 28.9454C15.3554 30.639 13.8319 33.8749 13.6934 37.141C13.5826 39.4999 14.2474 41.5261 15.5216 42.7055L29.8706 56.1027C30.9787 57.1309 32.3637 57.3729 33.8319 56.768C36.3803 55.7398 38.4302 52.6249 38.9842 48.9656L43.0008 21.3547C43.4718 18.1491 42.6407 15.3971 40.8125 14.1874C40.2308 13.764 39.5659 13.5523 38.8734 13.5523Z" fill="#DF393C"/>
<path d="M34.1863 58.5221C33.2999 58.5221 32.4412 58.2499 31.6656 57.6753L14.5741 45.0644C13.0229 43.9152 12.0811 41.7681 11.9703 39.1975C11.8318 35.6894 13.2445 32.1209 15.5714 30.0644L34.685 13.2802C36.5686 11.6169 38.6739 11.254 40.4467 12.2822C42.552 13.4919 43.6877 16.3346 43.4661 19.7217L41.444 49.0866C41.1947 52.9273 39.2002 56.4354 36.4855 57.887C35.7376 58.3104 34.9343 58.5221 34.1863 58.5221ZM34.7404 13.3709L34.7958 13.4616L15.7099 30.2459C13.4384 32.2419 12.0534 35.7499 12.1919 39.1975C12.275 41.7076 13.1891 43.764 14.7127 44.883L31.8041 57.4939C33.1614 58.4919 34.8235 58.5826 36.4301 57.7056C39.0617 56.3144 41.0007 52.8669 41.2501 49.1169L43.2722 19.7519C43.4938 16.4556 42.3858 13.6733 40.3636 12.5241C38.6739 11.5564 36.6517 11.889 34.8235 13.4919L34.7404 13.3709Z" fill="#DF393C"/>
<path d="M36.35 59.6108C35.519 59.6108 34.688 59.3991 33.9124 58.9455L13.8847 47.4536C12.0287 46.3951 10.8099 44.2177 10.4775 41.4656C10.062 37.8366 11.3085 33.9656 13.6631 31.637L33.3029 12.131C35.2974 10.1652 37.6243 9.59065 39.7295 10.5886C42.0564 11.6773 43.5246 14.5503 43.58 18.0281L43.9678 49.0261C44.0232 52.9878 42.2503 56.7378 39.5079 58.5826C38.4553 59.2479 37.4027 59.6108 36.35 59.6108ZM33.4692 12.2822L13.8293 31.7882C11.5024 34.0866 10.2836 37.8669 10.6991 41.4354C11.0038 44.0967 12.2226 46.2136 13.9955 47.2419L34.0232 58.7338C35.7129 59.7015 37.6243 59.5806 39.3971 58.3709C42.1118 56.5564 43.8293 52.8971 43.7739 48.9959L43.3861 17.9979C43.3307 14.6108 41.9179 11.8285 39.6741 10.7701C37.652 9.80234 35.4082 10.3769 33.4692 12.2822Z" fill="#DF393C"/>
<path d="M38.7615 60.5181C38.0136 60.5181 37.2657 60.3669 36.5178 60.0645L13.3322 50.0241C11.1438 49.0866 9.56486 46.8487 9.01084 43.9455C8.26292 40.1653 9.31555 36.1733 11.6978 33.4818L31.6978 11.0725C33.7477 8.77414 36.407 7.9576 38.8169 8.86486C41.4485 9.86285 43.2214 12.6149 43.5815 16.2137L46.7671 48.6935C47.1549 52.6854 45.659 56.7076 42.9167 58.9757C41.6147 59.9737 40.1743 60.5181 38.7615 60.5181ZM31.7809 11.1028L31.864 11.1935L11.864 33.6028C9.50946 36.2338 8.51223 40.1653 9.23245 43.8548C9.78647 46.6975 11.31 48.8749 13.443 49.7822L36.6286 59.8225C38.6507 60.6995 40.8945 60.2762 42.8059 58.7036C45.4651 56.4959 46.961 52.5342 46.5732 48.633L43.3599 16.1834C43.0275 12.6753 41.2823 9.98381 38.7338 9.01607C36.407 8.13905 33.8308 8.95559 31.8363 11.1632L31.7809 11.1028Z" fill="#DF393C"/>
<path d="M41.4155 61.2742C40.7784 61.2742 40.1135 61.1834 39.4764 60.9717L12.9113 52.7459C10.3351 51.9597 8.39608 49.6915 7.50965 46.5766C6.45702 42.7661 7.26034 38.5322 9.61492 35.5685L29.7811 10.0443C31.8864 7.38303 34.795 6.26408 37.5928 7.05037C40.5013 7.86691 42.662 10.5584 43.3545 14.248L49.7811 47.9677C50.529 51.9899 49.3656 56.1633 46.7063 58.8548C45.1551 60.4274 43.2991 61.2742 41.4155 61.2742ZM29.9196 10.1048L30.0027 10.1653L9.83652 35.6895C7.53735 38.623 6.73403 42.7359 7.75896 46.4859C8.58998 49.5403 10.5013 51.748 12.9944 52.504L39.5595 60.7298C41.9972 61.4859 44.5457 60.7298 46.5955 58.6734C49.1994 56.0423 50.3628 51.9294 49.6149 47.998L43.1883 14.2782C42.4958 10.6794 40.4182 8.0786 37.5651 7.26207C34.8504 6.50602 32.0249 7.59473 29.975 10.1653L29.9196 10.1048Z" fill="#DF393C"/>
<path d="M44.3851 61.7579C43.8865 61.7579 43.3879 61.6975 42.8893 61.6067L12.7508 55.6491C9.7314 55.0442 7.34913 52.7761 6.13029 49.4192C4.77295 45.6087 5.32697 41.1934 7.59844 37.9273L27.6538 9.16721C29.7591 6.11278 32.9447 4.66116 36.1303 5.266C39.3713 5.87084 41.9475 8.47165 43.0278 12.1914L53.0832 46.9394C54.2189 50.9011 53.3879 55.2559 50.9225 58.3406C49.1497 60.5785 46.8228 61.7579 44.3851 61.7579ZM34.7176 5.38697C32.086 5.38697 29.5929 6.7781 27.82 9.31842L7.76464 38.0785C5.54858 41.2841 4.99456 45.5785 6.3242 49.3285C7.48763 52.6249 9.8422 54.8325 12.7785 55.4071L42.8893 61.3648C45.7979 61.9394 48.6788 60.7902 50.7563 58.1894C53.194 55.1652 53.9973 50.9011 52.8893 46.9999L42.8339 12.3124C41.7813 8.68334 39.2605 6.14302 36.1026 5.53818C35.6317 5.44745 35.1885 5.38697 34.7176 5.38697Z" fill="#DF393C"/>
<path d="M47.5093 62C47.2322 62 46.9552 62 46.6782 61.9697L12.8001 58.7339C9.3375 58.4012 6.34581 56.1028 4.79457 52.5343C3.07711 48.6935 3.38182 44.248 5.54249 40.7097L25.1824 8.50201C27.2599 5.08467 30.6671 3.23991 34.2683 3.57257C37.8694 3.90523 40.9165 6.38507 42.44 10.1351L56.6782 45.5484C58.2572 49.4798 57.8417 53.8951 55.5425 57.3427C53.6034 60.3367 50.6394 62 47.5093 62ZM33.4095 3.78426C30.1962 3.78426 27.2322 5.56854 25.3486 8.65322L5.70869 40.8306C3.57573 44.3387 3.29872 48.6633 4.96077 52.4435C6.48432 55.9214 9.42061 58.1895 12.8001 58.4919L46.6782 61.7278C50.0577 62.0605 53.2987 60.3669 55.3763 57.252C57.6201 53.8347 58.0356 49.5101 56.4843 45.6693L42.2461 10.256C40.778 6.56652 37.7863 4.17741 34.2683 3.81451C33.9635 3.81451 33.6865 3.78426 33.4095 3.78426Z" fill="#DF393C"/>
<path d="M50.892 61.9395H13.108C9.09141 61.9395 5.4903 59.6714 3.49584 55.8911C1.50138 52.1109 1.50138 47.5746 3.49584 43.7641L22.3878 8.04839C24.41 4.26815 27.9834 2 32 2C36.0166 2 39.6177 4.26815 41.6122 8.04839L60.5042 43.7641C62.4986 47.5444 62.4986 52.0806 60.5042 55.8911C58.5097 59.7016 54.9086 61.9395 50.892 61.9395ZM22.554 8.16935L3.68975 43.8851C1.72299 47.6048 1.72299 52.0504 3.68975 55.7702C5.65651 59.4899 9.17452 61.7278 13.1357 61.7278H50.9197C54.8532 61.7278 58.3712 59.4899 60.3657 55.7702C62.3324 52.0504 62.3324 47.6048 60.3657 43.8851L41.446 8.16935C39.4792 4.4496 35.9612 2.21169 32 2.21169C28.0665 2.21169 24.5485 4.4496 22.554 8.16935Z" fill="#DF393C"/>
</svg>
