<svg width="167" height="97" viewBox="0 0 167 97" fill="none" xmlns="http://www.w3.org/2000/svg">
<path fill-rule="evenodd" clip-rule="evenodd" d="M2.10644 11.4185C5.74579 9.10655 52.9615 0.487153 64.6364 0.0650672C82.0233 -0.563523 99.8069 3.39465 111.966 10.5995C121.639 16.3311 128.46 24.6091 130.484 33.0729C131.653 37.9634 131.603 40.7341 130.25 46.1145L129.082 50.7599L132.782 53.1138C145.063 60.9264 155.828 72.7879 161.176 84.3993C161.99 86.1683 162.758 87.5512 162.882 87.4727C163.006 87.3936 162.788 84.1258 162.399 80.2106C162.009 76.2952 161.882 72.8004 162.116 72.4444C162.906 71.2463 164.329 72.0739 164.85 74.0354C165.833 77.7306 167.144 92.3071 166.686 94.4448C166.322 96.1397 165.831 96.323 163.174 95.7551C161.559 95.4098 159.699 94.3126 155.146 91.0185C147.752 85.6685 146.606 84.6458 146.828 83.5947C146.979 82.8763 147.232 82.8492 148.637 83.4005C149.535 83.7526 152.235 85.2778 154.637 86.7893C157.039 88.3008 159.092 89.4855 159.199 89.4224C159.586 89.1943 155.443 82.0593 152.736 78.291C147.641 71.1992 142.798 66.049 136.646 61.1813C133.285 58.5216 127.108 54.2832 126.887 54.4844C126.821 54.5446 126.055 55.6451 125.186 56.9303C122.193 61.356 116.116 66.8245 110.442 70.1992C94.3531 79.7677 72.9182 79.9099 63.9241 70.508C62.7664 69.2978 61.7745 67.5963 61.2174 65.8644C60.448 63.4732 60.4285 62.7144 61.0594 59.7986C62.108 54.9527 64.6298 51.9087 70.8587 47.9686C77.841 43.5513 85.7201 41.3827 95.242 41.2565C100.422 41.1877 115.252 44.3442 120.947 46.7273C123.075 47.6181 124.952 48.2608 125.117 48.1559C125.282 48.0509 125.804 46.5274 126.276 44.7712C127.783 39.1602 127.065 33.7527 124.089 28.2952C115.717 12.9476 91.9601 3.14122 65.1785 3.97858C55.9679 4.26637 8.12464 11.9131 3.14458 13.8311C1.43873 14.4882 0.731532 14.5588 0.370839 14.1076C-0.35902 13.1941 -0.12986 12.8388 2.10644 11.4185ZM63.9604 62.8473C64.3486 68.9401 71.6405 73.1085 82.6554 73.534C92.5841 73.9172 101.518 71.2236 110.445 65.1554C115.425 61.7697 119.285 58.197 121.602 54.8288C123.562 51.9813 123.875 52.3334 116.993 49.6516C111.271 47.4216 100.042 44.8789 95.8831 44.8709C90.8962 44.8616 85.4643 45.5557 80.8973 46.7848C73.5096 48.7737 66.5791 53.9136 64.7814 58.737C64.3843 59.8026 64.0124 60.769 63.9541 60.8843C63.8963 60.9998 63.899 61.8833 63.9604 62.8473Z" fill="url(#paint0_linear_101_5121)"/>
<defs>
<linearGradient id="paint0_linear_101_5121" x1="94.1986" y1="3.23607" x2="78.2632" y2="77.5467" gradientUnits="userSpaceOnUse">
<stop stop-color="#E96624"/>
<stop offset="0.25" stop-color="#D1304B"/>
<stop offset="0.5" stop-color="#BC2B52"/>
<stop offset="0.75" stop-color="#901F5E"/>
<stop offset="1" stop-color="#3F61CA"/>
</linearGradient>
</defs>
</svg>
