<svg width="65" height="64" viewBox="0 0 65 64" fill="none" xmlns="http://www.w3.org/2000/svg">
<path d="M43.8591 59.2285C42.7141 59.2285 41.6008 58.7825 40.7421 57.986L12.6246 31.734C11.4159 30.5871 10.907 28.9304 11.2887 27.3056C11.6704 25.6807 12.8472 24.4064 14.4376 23.9285L51.2066 12.6822C52.7969 12.2043 54.4827 12.5866 55.6914 13.7335C56.9 14.8805 57.409 16.5371 57.0273 18.162L48.3757 55.6922C47.9941 57.317 46.8172 58.5913 45.2268 59.0692C44.7815 59.1648 44.3044 59.2285 43.8591 59.2285ZM12.72 31.6066L40.8375 57.8586C42.0143 58.9737 43.6365 59.3241 45.195 58.8781C46.7218 58.4002 47.8668 57.1895 48.2485 55.5966L56.9 18.0664C57.2499 16.5053 56.7728 14.8805 55.596 13.7972C54.4191 12.6822 52.7969 12.3317 51.2384 12.7778L14.4694 24.0878C12.9427 24.5657 11.7976 25.7763 11.4159 27.3693C11.066 28.9304 11.5431 30.5234 12.72 31.6066Z" fill="#DF393C"/>
<path d="M35.9431 61.9046C35.8795 61.9046 35.8159 61.9046 35.7841 61.9046C34.1301 61.8409 32.6352 60.917 31.8718 59.4515L13.8054 25.4258C13.0102 23.9603 13.0738 22.208 13.9644 20.8062C14.855 19.3725 16.3818 18.5761 18.0357 18.6398L56.4587 19.9779C58.1127 20.0416 59.5758 20.9655 60.371 22.431C61.1661 23.8966 61.1025 25.6488 60.2119 27.0506L39.8554 59.7063C38.9966 61.0763 37.5335 61.9046 35.9431 61.9046ZM17.8767 18.7991C16.3182 18.7991 14.9187 19.5637 14.0917 20.9018C13.2329 22.2717 13.1693 23.9284 13.9326 25.3621L31.9991 59.3559C32.7624 60.7896 34.1619 61.6816 35.7841 61.7135C37.4063 61.7772 38.8694 60.9807 39.7282 59.6108L60.0847 26.955C60.9435 25.5851 61.0071 23.9284 60.2437 22.4948C59.4804 21.0611 58.0809 20.169 56.4587 20.1372L18.0357 18.7991C17.9721 18.7991 17.9085 18.7991 17.8767 18.7991Z" fill="#DF393C"/>
<path d="M27.5395 61.809C26.9669 61.809 26.4262 61.7135 25.8537 61.4904C24.2951 60.8851 23.2137 59.547 22.9592 57.8903L16.9477 19.8823C16.6932 18.2256 17.2976 16.6008 18.6017 15.5494C19.9058 14.4981 21.5915 14.2113 23.1501 14.8167L59.0285 28.6117C60.587 29.217 61.6685 30.5551 61.9229 32.2118C62.1774 33.8685 61.573 35.4933 60.2689 36.5447L30.4021 60.7895C29.5751 61.4586 28.5891 61.809 27.5395 61.809ZM21.4961 14.6574C20.5101 14.6574 19.5241 15.0078 18.6971 15.645C17.4566 16.6645 16.8523 18.2256 17.1067 19.8186L23.1183 57.8585C23.3727 59.4515 24.4224 60.7577 25.9173 61.3311C27.4122 61.9046 29.0662 61.6497 30.3067 60.6302L60.2053 36.4172C61.4458 35.3977 62.0501 33.8366 61.7957 32.2437C61.5412 30.6507 60.4916 29.3445 58.9967 28.771L23.1183 14.9759C22.5776 14.7848 22.0368 14.6574 21.4961 14.6574Z" fill="#DF393C"/>
<path d="M19.5871 58.9734C18.5375 58.9734 17.4879 58.5911 16.6291 57.8902C15.3568 56.807 14.7524 55.1822 15.0387 53.5573L21.7182 15.6448C22.0045 13.9882 23.1177 12.6819 24.6763 12.1085C26.2348 11.535 27.9524 11.8217 29.2247 12.905L58.678 37.6596C59.9503 38.7428 60.5546 40.3676 60.2684 41.9924C59.9821 43.6491 58.8689 44.9554 57.3103 45.5288L21.2093 58.6867C20.6686 58.8778 20.1278 58.9734 19.5871 58.9734ZM26.2984 11.9492C25.7895 11.9492 25.2488 12.0448 24.7717 12.2359C23.2449 12.7775 22.1953 14.0519 21.909 15.6448L15.2296 53.5573C14.9433 55.1503 15.5158 56.7114 16.7563 57.7628C17.9968 58.8141 19.6189 59.1009 21.1457 58.5274L57.2785 45.3695C58.8053 44.8279 59.8549 43.5535 60.1412 41.9606C60.4274 40.3676 59.8549 38.8065 58.6144 37.7552L29.1611 13.0005C28.3341 12.3315 27.3481 11.9492 26.2984 11.9492Z" fill="#DF393C"/>
<path d="M13.0661 53.7487C11.4439 53.7487 9.94898 52.9203 9.12199 51.5185C8.2632 50.0848 8.23139 48.3644 9.02657 46.8989L27.6655 13.1918C28.4607 11.7263 29.9556 10.8343 31.6096 10.8024C33.2636 10.7705 34.7903 11.5989 35.6491 13.0325L55.4331 46.0387C56.2919 47.4724 56.3237 49.1928 55.5285 50.6583C54.7333 52.1238 53.2384 53.0159 51.5844 53.0478L13.1297 53.7487C13.0979 53.7487 13.0661 53.7487 13.0661 53.7487ZM31.705 10.9617C31.6732 10.9617 31.6414 10.9617 31.6096 10.9617C29.9874 10.9936 28.5561 11.8538 27.7927 13.2556L9.1538 46.9308C8.35862 48.3326 8.39043 50.0211 9.21741 51.3911C10.0444 52.761 11.5075 53.5894 13.1297 53.5575L51.5526 52.8885C53.1748 52.8566 54.6061 51.9964 55.3695 50.5946C56.1647 49.1928 56.1329 47.5042 55.3059 46.1343L35.5219 13.1281C34.6949 11.7582 33.2636 10.9617 31.705 10.9617Z" fill="#DF393C"/>
<path d="M45.129 58.5274C44.6519 58.5274 44.1748 58.4637 43.6977 58.3044L7.11956 46.4209C5.5292 45.9111 4.38415 44.6049 4.03427 42.9801C3.68439 41.3553 4.22511 39.6986 5.46559 38.5835L34.0284 12.8094C35.2688 11.6943 36.9546 11.3439 38.545 11.8536C40.1353 12.3634 41.2804 13.6696 41.6302 15.2944L49.6138 52.952C49.9637 54.5769 49.423 56.2335 48.1825 57.3486C47.3555 58.1132 46.2423 58.5274 45.129 58.5274ZM37.1136 11.758C36.0322 11.758 34.9826 12.1403 34.1556 12.905L5.59282 38.6791C4.38415 39.7623 3.87524 41.3553 4.22511 42.9164C4.57499 44.5093 5.68824 45.7519 7.21498 46.2297L43.7613 58.1132C45.2881 58.623 46.9102 58.2725 48.1189 57.1893C49.3276 56.1061 49.8365 54.5131 49.4866 52.952L41.503 15.3263C41.1531 13.7333 40.0399 12.4908 38.5132 12.0129C38.036 11.8536 37.5907 11.758 37.1136 11.758Z" fill="#DF393C"/>
<path d="M37.3061 61.6497C36.3201 61.6497 35.3659 61.3311 34.5389 60.7257L3.84508 37.5322C2.50918 36.5127 1.84123 34.9198 2.03207 33.2631C2.22292 31.6064 3.27255 30.2365 4.79929 29.5674L40.1688 14.5299C41.6955 13.8608 43.4131 14.0838 44.749 15.1033C46.0849 16.1228 46.7528 17.7158 46.562 19.3725L41.8863 57.6035C41.6955 59.2602 40.6459 60.6302 39.1191 61.2992C38.5466 61.5222 37.9105 61.6497 37.3061 61.6497ZM40.2324 14.5936L40.2642 14.6573L4.8629 29.7267C3.36797 30.3639 2.38195 31.702 2.19111 33.2949C2.00027 34.8879 2.63641 36.449 3.9405 37.4048L34.6343 60.5665C35.9066 61.5541 37.5924 61.7452 39.0555 61.1081C40.5504 60.4709 41.5365 59.1328 41.7273 57.5398L46.403 19.3087C46.5938 17.7158 45.9577 16.1547 44.6536 15.1989C43.3813 14.2431 41.7273 14.0201 40.2324 14.6573V14.5936Z" fill="#DF393C"/>
<path d="M28.9052 62C27.3785 62 25.9472 61.2673 25.0884 59.961L3.61862 28.0381C2.69621 26.6363 2.56898 24.9159 3.30055 23.4185C4.03211 21.9211 5.46343 20.9335 7.1174 20.8379L45.4767 18.1617C47.1307 18.0343 48.6893 18.7989 49.6435 20.2007C50.5659 21.6025 50.6931 23.3229 49.9615 24.8203L33.1038 59.4194C32.3722 60.9168 30.9409 61.9044 29.2869 62C29.1279 62 29.0325 62 28.9052 62ZM45.4767 18.321L7.1174 20.9972C5.49524 21.1246 4.12753 22.0485 3.42778 23.4822C2.72802 24.9477 2.82344 26.6044 3.74585 27.9425L25.2474 59.8654C26.138 61.2035 27.6648 61.9363 29.2551 61.8089C30.8773 61.6814 32.245 60.7575 32.9447 59.3238L49.8025 24.7247C50.5023 23.2592 50.4068 21.6025 49.4844 20.2644C48.5938 18.9263 47.0989 18.1936 45.4767 18.321Z" fill="#DF393C"/>
<path d="M20.8901 59.6426C20.4766 59.6426 20.0632 59.5789 19.6815 59.4833C18.0593 59.0372 16.8506 57.8266 16.4053 56.2018L6.48153 19.022C6.03623 17.3972 6.48153 15.7405 7.6902 14.5617C8.86706 13.383 10.5528 12.9369 12.1432 13.3511L49.2621 23.323C50.8842 23.7691 52.0929 24.9797 52.5382 26.6045C52.9835 28.2294 52.5382 29.886 51.3295 31.0648L24.1345 58.3045C23.2757 59.1647 22.0988 59.6426 20.8901 59.6426ZM10.9027 13.3511C9.72585 13.3511 8.6126 13.7971 7.75381 14.6573C6.60876 15.8043 6.19527 17.3972 6.60876 18.9583L16.5644 56.1699C16.9779 57.731 18.1547 58.9098 19.7133 59.324C21.2718 59.7381 22.894 59.324 24.0072 58.177L51.2023 30.9374C52.3473 29.7905 52.7608 28.1975 52.3473 26.6364C51.9339 25.0753 50.757 23.8965 49.1984 23.4823L12.0796 13.5104C11.6979 13.4148 11.3162 13.3511 10.9027 13.3511Z" fill="#DF393C"/>
<path d="M14.0266 54.7682C13.136 54.7682 12.2454 54.5133 11.4502 53.9717C10.0507 53.0478 9.31912 51.4867 9.41454 49.7981L12.0863 11.3759C12.2136 9.71922 13.1678 8.28555 14.6627 7.55279C16.1576 6.82002 17.8752 6.94746 19.2747 7.87138L51.1454 29.4082C52.5449 30.3321 53.2765 31.8932 53.1811 33.5818C53.0539 35.2385 52.0996 36.6721 50.6047 37.4049L16.0622 54.2903C15.4261 54.6089 14.7263 54.7682 14.0266 54.7682ZM16.7302 7.26605C16.0622 7.26605 15.3943 7.42535 14.7581 7.71208C13.295 8.41299 12.3726 9.81479 12.2772 11.4078L9.60538 49.83C9.47815 51.4548 10.2097 52.9522 11.5456 53.8443C12.8815 54.7363 14.5355 54.8638 15.9986 54.1629L50.5411 37.2775C52.0042 36.5766 52.9266 35.1747 53.022 33.5818C53.1493 31.957 52.4177 30.4596 51.0818 29.5675L19.2111 8.03068C18.4477 7.52093 17.589 7.26605 16.7302 7.26605Z" fill="#DF393C"/>
<path d="M9.1286 47.9502C7.69728 47.9502 6.32957 47.2812 5.47078 46.1024C4.45296 44.7643 4.26211 43.0439 4.89825 41.5147L19.943 6.05535C20.611 4.5261 21.9787 3.47475 23.6326 3.28359C25.2866 3.09244 26.8769 3.76148 27.8948 5.09957L51.0185 35.8437C52.0364 37.1818 52.2272 38.9022 51.5911 40.4315C50.9231 41.9607 49.5554 43.0121 47.9014 43.2032L9.73293 47.8865C9.54209 47.9184 9.31944 47.9502 9.1286 47.9502ZM24.2052 3.41103C24.0143 3.41103 23.8235 3.41103 23.6326 3.44289C22.0423 3.63404 20.7064 4.65354 20.0702 6.11906L5.05729 41.5784C4.42115 43.0758 4.6438 44.7325 5.59801 46.0068C6.58403 47.2812 8.11077 47.9502 9.70112 47.7591L47.8696 43.0758C49.46 42.8846 50.7959 41.8651 51.432 40.3996C52.0682 38.9022 51.8455 37.2455 50.8913 35.9712L27.7357 5.16329C26.8769 4.04821 25.5729 3.41103 24.2052 3.41103Z" fill="#DF393C"/>
<path d="M44.3709 47.8865C44.0528 47.8865 43.7029 47.8546 43.3849 47.7909L5.78889 39.7624C4.16673 39.4119 2.86264 38.265 2.35373 36.672C1.84482 35.0791 2.19469 33.3905 3.30794 32.148L29.0399 3.53842C30.1531 2.29591 31.8071 1.7543 33.4293 2.10475C35.0514 2.45521 36.3555 3.60214 36.8644 5.1951L48.7603 41.8332C49.2692 43.4262 48.9193 45.1147 47.806 46.3572C46.9155 47.3449 45.675 47.8865 44.3709 47.8865ZM32.475 2.16847C31.2346 2.16847 30.0577 2.67822 29.1671 3.634L3.43517 32.2755C2.35373 33.4861 2.00385 35.1109 2.51276 36.6402C3.02168 38.1694 4.26215 39.2845 5.8207 39.6349L43.4167 47.6316C45.007 47.9821 46.5656 47.4405 47.647 46.2617C48.7285 45.051 49.0783 43.4262 48.5694 41.8969L36.7372 5.25882C36.2283 3.72958 34.9878 2.6145 33.4293 2.26405C33.0794 2.20033 32.7613 2.16847 32.475 2.16847Z" fill="#DF393C"/>
<path d="M40.0411 51.3273C39.2141 51.3273 38.4189 51.1043 37.6555 50.6583L4.73519 30.81C3.30387 29.9498 2.47689 28.4205 2.5087 26.7638C2.5405 25.1072 3.4311 23.6098 4.89423 22.8133L38.4825 4.14378C39.9456 3.3473 41.6632 3.3473 43.0945 4.23936C44.5259 5.09956 45.3528 6.6288 45.321 8.28548L44.6531 46.7714C44.6213 48.4281 43.7307 49.9255 42.2676 50.722C41.5996 51.1362 40.8362 51.3273 40.0411 51.3273ZM40.7408 3.69775C40.0093 3.69775 39.2459 3.88891 38.5779 4.27122L4.95784 22.9407C3.55833 23.7372 2.69954 25.139 2.66773 26.7638C2.60412 28.3887 3.4311 29.8542 4.79881 30.6825L37.7509 50.499C39.1187 51.3273 40.8044 51.3592 42.2039 50.5627C43.6035 49.7662 44.4622 48.3326 44.494 46.7396L45.162 8.25362C45.1938 6.6288 44.3668 5.16328 42.9991 4.33494C42.2994 3.92077 41.536 3.69775 40.7408 3.69775Z" fill="#DF393C"/>
<path d="M34.8592 53.1435C33.5233 53.1435 32.251 52.57 31.3286 51.4868L6.64634 21.9851C5.5649 20.7107 5.27864 18.9904 5.85116 17.4292C6.42369 15.8681 7.75959 14.7531 9.38175 14.4663L47.2322 7.7759C48.8861 7.48916 50.5083 8.06263 51.5579 9.36886C52.6394 10.6432 52.9256 12.3636 52.3531 13.9247L39.2168 50.1168C38.6443 51.6779 37.3084 52.793 35.6862 53.0797C35.3999 53.1116 35.1455 53.1435 34.8592 53.1435ZM48.0592 7.87148C47.8047 7.87148 47.5184 7.90333 47.264 7.93519L9.41356 14.6256C7.8232 14.9124 6.55092 15.9637 6.0102 17.493C5.46948 19.0222 5.75574 20.647 6.77357 21.8895L31.4559 51.3912C32.5055 52.6337 34.064 53.2072 35.6544 52.9204C37.2448 52.6337 38.517 51.5824 39.0578 50.0531L52.1941 13.861C52.7348 12.3318 52.4485 10.7069 51.4307 9.46444C50.5719 8.44494 49.3632 7.87148 48.0592 7.87148Z" fill="#DF393C"/>
<path d="M29.4193 53.2071C29.1649 53.2071 28.9104 53.1752 28.6878 53.1434C27.0338 52.8885 25.6979 51.8053 25.0936 50.2442L11.2893 14.2751C10.685 12.714 10.9712 10.9936 12.0208 9.71922C13.0705 8.41299 14.6926 7.80766 16.3466 8.06254L54.3243 14.0839C55.9782 14.3388 57.3141 15.422 57.9185 16.9831C58.5228 18.5442 58.2365 20.2646 57.1869 21.539L32.9817 51.4548C32.0911 52.5699 30.787 53.2071 29.4193 53.2071ZM15.5832 8.15812C14.2473 8.15812 13.0069 8.76344 12.1481 9.8148C11.1302 11.0573 10.8758 12.714 11.4483 14.2114L25.2208 50.1805C25.7933 51.6778 27.0974 52.7292 28.6878 52.9841C30.2781 53.2389 31.8367 52.6336 32.8545 51.3911L57.0279 21.4434C58.0457 20.2009 58.3002 18.5442 57.7276 17.0468C57.1551 15.5495 55.851 14.4981 54.2607 14.2432L16.3148 8.22183C16.0603 8.15812 15.8377 8.15812 15.5832 8.15812Z" fill="#DF393C"/>
<path d="M24.1701 51.4548C23.4385 51.4548 22.6752 51.2637 22.0072 50.9132C20.5441 50.1167 19.6217 48.6512 19.5581 46.9945L18.2222 8.50856C18.1586 6.85188 18.9855 5.32264 20.3851 4.43058C21.8164 3.53852 23.534 3.4748 24.9971 4.27128L58.9352 22.3355C60.3984 23.132 61.3208 24.5975 61.3844 26.2542C61.448 27.9108 60.621 29.4401 59.2215 30.3321L26.6192 50.7539C25.8559 51.2318 25.0289 51.4548 24.1701 51.4548ZM22.8342 3.85711C22.0072 3.85711 21.212 4.08012 20.4805 4.55801C19.1128 5.41821 18.3176 6.88374 18.3812 8.50856L19.7171 46.9945C19.7807 48.6193 20.6713 50.0212 22.0708 50.7858C23.5021 51.5504 25.1561 51.4867 26.5238 50.6265L59.1261 30.2366C60.4938 29.3764 61.289 27.9108 61.2253 26.286C61.1617 24.6612 60.2711 23.2594 58.8716 22.4948L24.9335 4.39872C24.2655 4.04827 23.534 3.85711 22.8342 3.85711Z" fill="#DF393C"/>
<path d="M19.7783 48.1097C18.506 48.1097 17.2974 47.5999 16.4068 46.6442C15.2617 45.4335 14.88 43.745 15.3571 42.152L26.6487 5.29086C27.1258 3.6979 28.398 2.51911 30.0202 2.1368C31.6424 1.75449 33.2963 2.26423 34.4414 3.47489L60.6504 31.6385C61.7955 32.8491 62.1772 34.5376 61.7001 36.1306C61.2229 37.7236 59.9507 38.9024 58.3285 39.2847L20.8598 47.9822C20.5099 48.046 20.1282 48.1097 19.7783 48.1097ZM31.0698 2.16866C30.72 2.16866 30.4019 2.20052 30.052 2.29609C28.4935 2.64655 27.253 3.79348 26.7759 5.35458L15.548 42.152C15.0709 43.6812 15.4526 45.3379 16.5658 46.5167C17.6791 47.6955 19.2694 48.1734 20.828 47.8229L58.2967 39.1572C59.8552 38.8068 61.0957 37.6598 61.5728 36.0987C62.0499 34.5695 61.6682 32.9128 60.555 31.734L34.3142 3.60232C33.4554 2.6784 32.2785 2.16866 31.0698 2.16866Z" fill="#DF393C"/>
<path d="M55.0228 47.5362C54.8637 47.5362 54.7047 47.5362 54.5139 47.5043L16.3136 43.49C14.6596 43.3307 13.2601 42.3112 12.5921 40.782C11.9242 39.2528 12.0832 37.5324 13.0692 36.1943L35.6523 5.03594C36.6383 3.69785 38.1968 2.96509 39.8826 3.15625C41.5366 3.31554 42.9361 4.33504 43.604 5.86428L59.2531 41.0369C59.9211 42.5661 59.762 44.2865 58.776 45.6246C57.8536 46.8353 56.4859 47.5362 55.0228 47.5362ZM39.3737 3.25182C37.9424 3.25182 36.6383 3.92087 35.7795 5.09966L13.1965 36.258C12.2422 37.5642 12.0832 39.2209 12.7194 40.6864C13.3873 42.152 14.7232 43.1396 16.3136 43.2989L54.5457 47.3132C56.136 47.4725 57.6628 46.8034 58.617 45.4972C59.5712 44.1909 59.7302 42.5343 59.0941 41.0687L43.445 5.928C42.8088 4.43062 41.4411 3.47484 39.8508 3.28368C39.6918 3.28368 39.5327 3.25182 39.3737 3.25182Z" fill="#DF393C"/>
<path d="M50.2513 54.4495C49.5834 54.4495 48.9154 54.2902 48.2793 54.0035L13.4505 37.7553C11.9238 37.0544 10.9378 35.6207 10.8105 33.964C10.6515 32.3074 11.3831 30.7463 12.7508 29.7586L44.2398 7.68016C45.6075 6.72438 47.3251 6.56509 48.8518 7.26599C50.3786 7.96689 51.3646 9.40056 51.4918 11.0572L54.8316 49.4158C54.9906 51.0724 54.259 52.6336 52.8913 53.6212C52.0961 54.1628 51.1737 54.4495 50.2513 54.4495ZM46.8798 7.01112C45.9892 7.01112 45.0986 7.29785 44.3352 7.83946L12.8462 29.9179C11.5103 30.8418 10.8105 32.3711 10.9696 33.964C11.0968 35.557 12.051 36.9269 13.5141 37.6278L48.3429 53.9079C49.806 54.577 51.46 54.4495 52.7959 53.5256C54.1318 52.6017 54.8316 51.0724 54.6725 49.4795L51.3328 11.0891C51.2055 9.49614 50.2513 8.12619 48.7882 7.42529C48.1839 7.13855 47.5159 7.01112 46.8798 7.01112Z" fill="#DF393C"/>
<path d="M43.4738 59.4512C42.2969 59.4512 41.1518 59.0052 40.2931 58.145L12.6527 31.3832C11.444 30.2363 10.9669 28.5478 11.3804 26.9229C11.7939 25.2981 12.9708 24.0556 14.5929 23.6096L51.5528 13.0005C53.1431 12.5544 54.8289 12.9686 56.0376 14.1155C57.2462 15.2625 57.7233 16.951 57.3098 18.5758L48.0222 55.9467C47.6087 57.5715 46.4318 58.814 44.8097 59.2601C44.3326 59.3875 43.8873 59.4512 43.4738 59.4512ZM52.7932 12.9686C52.3797 12.9686 51.9663 13.0323 51.5528 13.1597L14.5929 23.7689C13.0344 24.2149 11.8893 25.4256 11.5076 26.9867C11.126 28.5478 11.5713 30.1726 12.7481 31.2877L40.3885 58.0494C41.5335 59.1645 43.1557 59.5787 44.7142 59.1326C46.2728 58.6866 47.4178 57.476 47.7995 55.9148L57.0872 18.544C57.4689 16.9829 57.0236 15.358 55.8467 14.243C55.0197 13.4146 53.9383 12.9686 52.7932 12.9686Z" fill="#DF393C"/>
<path d="M35.491 61.9684C35.3956 61.9684 35.332 61.9684 35.2365 61.9684C33.5826 61.8728 32.1195 60.9489 31.3561 59.4515L13.9258 25.1072C13.1624 23.6098 13.2579 21.8894 14.1803 20.4876C15.1027 19.0858 16.6294 18.2893 18.2834 18.3849L56.6745 20.3921C58.3285 20.4876 59.7916 21.4115 60.555 22.9089C61.3184 24.4063 61.2229 26.1267 60.3005 27.5285L39.3715 59.8338C38.4809 61.1719 37.0496 61.9684 35.491 61.9684ZM14.053 25.0435L31.5151 59.3559C32.2467 60.7896 33.6462 61.7135 35.2684 61.7772C36.8905 61.8728 38.3536 61.1082 39.2442 59.7382L60.1733 27.4329C61.0639 26.063 61.1275 24.4063 60.396 22.9727C59.6644 21.539 58.2649 20.6151 56.6427 20.5514L18.2516 18.5761C16.6294 18.4805 15.1663 19.2451 14.2757 20.6151C13.4169 21.9532 13.3215 23.6098 14.053 25.0435Z" fill="#DF393C"/>
<path d="M27.0944 61.7134C26.5219 61.7134 25.9176 61.586 25.345 61.363C23.7865 60.7258 22.7368 59.3877 22.5142 57.731L17.1706 19.5955C16.9162 17.9388 17.5841 16.3459 18.8882 15.3264C20.1923 14.3069 21.9099 14.052 23.4684 14.6892L59.1241 29.0896C60.6827 29.7267 61.7323 31.0648 61.955 32.7215C62.1776 34.3782 61.5415 35.9712 60.2374 37.0225L29.9571 60.7258C29.0983 61.3948 28.1122 61.7134 27.0944 61.7134ZM17.3296 19.5955L22.6732 57.6992C22.8959 59.2921 23.9137 60.5984 25.4086 61.2037C26.9036 61.809 28.5575 61.586 29.8298 60.5665L60.1102 36.8632C61.3825 35.8756 62.0186 34.3145 61.7959 32.7215C61.5733 31.1286 60.5555 29.8223 59.0605 29.217L23.4048 14.8166C21.9099 14.2113 20.2559 14.4343 18.9836 15.4538C17.7113 16.4414 17.107 17.9707 17.3296 19.5955Z" fill="#DF393C"/>
<path d="M19.2073 58.7504C18.1259 58.7504 17.0445 58.3681 16.1857 57.6035C14.9134 56.5203 14.3727 54.8636 14.6907 53.2388L22.0382 15.4537C22.3562 13.797 23.5013 12.4908 25.0598 11.9492C26.6502 11.4076 28.336 11.7262 29.6083 12.8412L58.6163 38.1056C59.8886 39.1888 60.4293 40.8455 60.1113 42.4703C59.7932 44.127 58.6481 45.4014 57.0896 45.9749L20.7341 58.4955C20.2252 58.6867 19.7163 58.7504 19.2073 58.7504ZM22.1018 15.4537H22.1654L14.8498 53.2706C14.5317 54.8636 15.0724 56.4247 16.3129 57.5079C17.5216 58.5593 19.1755 58.8778 20.7023 58.3681L57.026 45.8156C58.5527 45.274 59.6341 44.0314 59.9522 42.4385C60.2703 40.8455 59.7296 39.2844 58.4891 38.2012L29.481 12.9687C28.2724 11.9173 26.6184 11.5987 25.0917 12.1085C23.5649 12.6501 22.4835 13.8926 22.1654 15.4856L22.1018 15.4537Z" fill="#DF393C"/>
<path d="M51.2071 53.3983H12.7842C11.1302 53.3983 9.60347 52.5381 8.77649 51.0726C7.9495 49.6389 7.9495 47.8866 8.77649 46.453L27.988 13.1282C28.8149 11.6945 30.3099 10.8025 31.9957 10.8025C33.6496 10.8025 35.1764 11.6627 36.0033 13.1282L55.2148 46.4848C56.0418 47.9185 56.0418 49.6708 55.2148 51.1044C54.3878 52.5381 52.8929 53.3983 51.2071 53.3983ZM28.1152 13.1919L8.90372 46.5486C8.10854 47.9504 8.10854 49.607 8.90372 51.0089C9.69889 52.4107 11.162 53.239 12.7524 53.239H51.2071C52.8293 53.239 54.2606 52.4107 55.0558 51.0089C55.851 49.607 55.851 47.9504 55.0558 46.5486L35.8443 13.1919C35.0491 11.7901 33.586 10.9618 31.9957 10.9618C30.3735 10.9618 28.9422 11.7901 28.1152 13.1919Z" fill="#DF393C"/>
</svg>
