<svg width="65" height="64" viewBox="0 0 65 64" fill="none" xmlns="http://www.w3.org/2000/svg">
<path d="M34.6085 44.0602C31.3011 44.0602 27.7933 43.0914 24.6864 41.087C20.9114 38.6482 18.3724 35.1404 17.8045 31.4322C17.3702 28.6928 18.0049 26.1538 19.6753 24.0825C23.7176 19.0714 32.5038 18.5703 39.319 22.9467C43.094 25.3854 45.633 28.8932 46.2009 32.6014C46.6352 35.3409 46.0005 37.8798 44.3301 39.9511C42.1586 42.6571 38.5506 44.0602 34.6085 44.0602ZM29.3969 20.0736C25.5216 20.0736 21.947 21.4433 19.7755 24.1493C18.1386 26.1872 17.4704 28.7262 17.9381 31.4322C18.5394 35.107 21.0116 38.5814 24.7867 41.0201C31.535 45.3631 40.2878 44.862 44.2633 39.9177C45.9003 37.8798 46.5684 35.3409 46.1007 32.6348C45.4994 28.96 43.0272 25.4856 39.2521 23.0469C36.1786 21.0424 32.6709 20.0736 29.3969 20.0736Z" fill="#DF393C"/>
<path d="M33.5414 44.6616C31.2362 44.6616 28.8643 44.1939 26.5592 43.1916C22.5169 41.421 19.4099 38.3141 18.0736 34.6393C17.0046 31.7328 17.1048 28.6927 18.4077 26.0535C21.4144 19.8731 29.9667 17.5012 37.4834 20.7751C41.5258 22.5457 44.6327 25.6527 45.969 29.3275C47.038 32.2339 46.9378 35.274 45.6349 37.9132C43.5302 42.2228 38.7863 44.6616 33.5414 44.6616ZM18.5079 26.1538C17.2385 28.7596 17.1382 31.7662 18.2073 34.6393C19.5436 38.2807 22.6171 41.3876 26.626 43.1248C34.0759 46.3653 42.5614 44.0268 45.5347 37.9132C46.8042 35.3074 46.9044 32.3008 45.8353 29.4277C44.499 25.7863 41.4255 22.6794 37.4166 20.9422C29.9667 17.7016 21.4812 20.0402 18.5079 26.1538Z" fill="#DF393C"/>
<path d="M32.6353 45.5302C31.3658 45.5302 30.0964 45.3966 28.7935 45.0625C24.7177 44.0937 21.1765 41.5881 19.1053 38.1805C17.3013 35.2073 16.7333 31.7663 17.5351 28.5257C19.3057 21.3097 27.2567 17.0335 35.2411 18.9378C39.3503 19.9066 42.8915 22.4456 44.9627 25.8531C46.7667 28.8264 47.3347 32.2674 46.5329 35.5079C45.0295 41.5547 39.1832 45.5302 32.6353 45.5302ZM31.3658 18.6037C24.8514 18.6037 19.0719 22.5792 17.6019 28.5591C16.8001 31.7663 17.3681 35.1738 19.1721 38.1137C21.2434 41.4879 24.7511 43.9935 28.7935 44.9623C36.7111 46.8665 44.5952 42.6237 46.3658 35.4745C47.1676 32.2674 46.5997 28.8598 44.7957 25.92C42.7578 22.5124 39.25 20.0402 35.1743 19.038C33.9048 18.7373 32.6353 18.6037 31.3658 18.6037Z" fill="#DF393C"/>
<path d="M32.0989 46.6324C31.865 46.6324 31.5978 46.6324 31.3639 46.599C23.1457 46.1981 16.7648 39.3162 17.1323 31.2649C17.2993 27.4231 18.9697 23.8485 21.8428 21.2427C24.7826 18.5367 28.6579 17.167 32.6668 17.3674C40.8851 17.7683 47.2659 24.6502 46.8984 32.7015C46.7314 36.5433 45.061 40.118 42.188 42.7237C39.4151 45.2627 35.8739 46.6324 32.0989 46.6324ZM31.9318 17.501C28.1902 17.501 24.6824 18.8707 21.9096 21.3763C19.0699 23.9821 17.3996 27.4899 17.2325 31.2984C16.865 39.2828 23.2125 46.0979 31.3639 46.4988C35.3728 46.6992 39.1813 45.3295 42.1212 42.6569C44.9608 40.0511 46.6312 36.5433 46.7982 32.7349C47.1657 24.7505 40.8183 17.9353 32.6668 17.5344C32.3996 17.501 32.1657 17.501 31.9318 17.501Z" fill="#DF393C"/>
<path d="M31.9329 47.902C28.8928 47.902 25.953 46.9332 23.414 45.0623C20.0064 42.5234 17.8015 38.7149 17.2002 34.3385C16.0309 25.686 21.6768 17.5679 29.8282 16.2984C33.6033 15.6971 37.4118 16.6659 40.5521 18.971C43.9596 21.51 46.1645 25.3185 46.7659 29.6949C47.9351 38.3474 42.2893 46.4655 34.1378 47.735C33.4028 47.8352 32.6679 47.902 31.9329 47.902ZM32.0665 16.2316C31.3316 16.2316 30.5966 16.2984 29.895 16.3986C21.8104 17.7015 16.1979 25.7194 17.3672 34.3051C17.9685 38.6481 20.14 42.4231 23.5142 44.9287C26.6211 47.2338 30.3962 48.1693 34.1378 47.6013C42.2224 46.3318 47.8349 38.2806 46.6656 29.6949C46.0643 25.3519 43.8928 21.5768 40.5187 19.0713C38.0131 17.2004 35.0732 16.2316 32.0665 16.2316Z" fill="#DF393C"/>
<path d="M32.3328 49.2383C30.3618 49.2383 28.3908 48.8041 26.5533 47.9021C22.5778 45.9978 19.4375 42.2228 17.9676 37.5457C15.1279 28.5591 19.1369 18.7372 26.8874 15.6972C30.3284 14.3274 34.07 14.4945 37.4776 16.098C41.4531 18.0023 44.5934 21.7773 46.0634 26.4544C48.8696 35.441 44.8607 45.2629 37.1101 48.3363C35.5734 48.9377 33.9364 49.2383 32.3328 49.2383ZM31.6981 14.8954C30.0945 14.8954 28.491 15.196 26.9542 15.7974C19.2705 18.8375 15.295 28.5591 18.1012 37.5123C19.5377 42.1559 22.6446 45.8976 26.6202 47.8018C29.9943 49.4054 33.7026 49.539 37.0767 48.2027C44.7605 45.1626 48.736 35.441 45.9297 26.4878C44.4932 21.8441 41.3863 18.1025 37.4108 16.1983C35.5734 15.3297 33.6357 14.8954 31.6981 14.8954Z" fill="#DF393C"/>
<path d="M33.1008 50.608C32.0652 50.608 30.9962 50.4744 29.9605 50.2071C25.5507 49.0713 21.642 45.6637 19.2701 40.853C14.7935 31.833 16.8648 20.5412 23.8804 15.6637C26.887 13.559 30.4951 12.9243 34.0363 13.8263C38.4461 14.9621 42.3547 18.3697 44.7267 23.1804C49.2033 32.2004 47.132 43.4922 40.1164 48.3697C38.0118 49.8396 35.573 50.608 33.1008 50.608ZM19.4037 40.7862C21.7757 45.5635 25.651 48.9376 30.0273 50.0735C33.5351 50.9755 37.1097 50.3408 40.083 48.2695C47.0318 43.4254 49.1031 32.2338 44.6599 23.2472C42.2879 18.4699 38.4126 15.0958 34.0363 13.9599C30.5285 13.0579 26.9538 13.6926 23.9806 15.7639C16.9984 20.608 14.9271 31.7995 19.4037 40.7862Z" fill="#DF393C"/>
<path d="M34.2323 51.8775C33.9985 51.8775 33.7646 51.8775 33.5308 51.8441C28.9539 51.5768 24.4439 48.7372 21.17 44.0601C15.0564 35.3742 14.9227 22.8797 20.9027 16.2316C23.4417 13.392 26.8492 11.9555 30.4573 12.1559C35.0341 12.4232 39.5441 15.2628 42.8181 19.9399C48.9316 28.6258 49.0653 41.1203 43.0853 47.7684C40.7468 50.441 37.6065 51.8775 34.2323 51.8775ZM29.7557 12.2895C26.4483 12.2895 23.3414 13.7261 21.0029 16.3319C15.0898 22.9466 15.2234 35.3408 21.3036 43.9599C24.5775 48.6036 29.0207 51.4098 33.5642 51.6771C37.1388 51.8775 40.5129 50.4744 43.0185 47.6682C48.9316 41.0535 48.798 28.6593 42.7178 20.0401C39.4439 15.3964 35.0007 12.5902 30.4573 12.323C30.2234 12.2895 29.9896 12.2895 29.7557 12.2895Z" fill="#DF393C"/>
<path d="M35.6399 52.98C31.5641 52.98 27.288 50.9088 23.6799 47.1337C16.0296 39.1159 13.524 25.8531 18.1009 17.5012C20.0719 13.8932 23.2122 11.6215 26.8871 11.1538C31.3971 10.5524 36.308 12.6571 40.3503 16.8999C48.0007 24.9177 50.5062 38.1805 45.9294 46.5324C43.9583 50.1404 40.818 52.4121 37.1432 52.8798C36.6421 52.9466 36.141 52.98 35.6399 52.98ZM28.3904 11.1872C27.8893 11.1872 27.3882 11.2206 26.8871 11.2874C23.2791 11.7551 20.2056 13.9934 18.2345 17.568C13.6911 25.8531 16.1632 39.0491 23.7802 47.0001C27.8225 51.2094 32.6666 53.2807 37.1098 52.7128C40.7178 52.2451 43.7913 50.0068 45.7623 46.4321C50.3058 38.1471 47.8336 24.9511 40.2167 17.0001C36.6421 13.2584 32.3993 11.1872 28.3904 11.1872Z" fill="#DF393C"/>
<path d="M37.1761 53.8486C33.8019 53.8486 30.1271 52.4789 26.7195 49.8397C17.6661 42.8909 12.6884 29.2272 15.5948 19.4054C16.8643 14.9956 19.6371 11.8887 23.312 10.686C27.5547 9.31627 32.6327 10.5858 37.3097 14.1604C46.3632 21.1091 51.3409 34.7728 48.4345 44.5947C47.1316 49.0045 44.3921 52.1114 40.6839 53.314C39.5814 53.6815 38.3788 53.8486 37.1761 53.8486ZM26.8532 10.3185C25.6505 10.3185 24.4812 10.4855 23.3788 10.853C19.7374 12.0223 17.0313 15.0958 15.7284 19.4722C12.8554 29.2606 17.7997 42.8241 26.8198 49.7394C31.43 53.2806 36.4745 54.5501 40.6505 53.1804C44.2919 52.0111 46.9979 48.9377 48.3008 44.5613C51.1739 34.7728 46.2296 21.2094 37.2095 14.294C33.8019 11.6882 30.1939 10.3185 26.8532 10.3185Z" fill="#DF393C"/>
<path d="M38.6484 54.5167C36.0092 54.5167 33.1027 53.7149 30.1963 52.1114C20.007 46.5657 12.4903 33.0357 13.4591 21.9443C13.9268 16.6994 16.1985 12.7573 19.8399 10.7862C23.7152 8.68154 28.6929 9.08243 33.7709 11.8553C43.9602 17.4009 51.4769 30.931 50.5081 42.0223C50.0404 47.2673 47.7687 51.2094 44.1272 53.1804C42.4903 54.0824 40.6528 54.5167 38.6484 54.5167ZM25.3522 9.65036C23.4145 9.65036 21.5771 10.0847 19.9401 10.9533C16.3321 12.8909 14.0938 16.7996 13.6261 21.9777C12.6573 33.0022 20.1406 46.4655 30.2631 51.9777C35.3076 54.7172 40.2185 55.0846 44.0604 53.0468C47.6684 51.1091 49.9067 47.2005 50.3744 42.0223C51.3433 30.9978 43.86 17.5345 33.7375 12.0223C30.831 10.4521 27.9914 9.65036 25.3522 9.65036Z" fill="#DF393C"/>
<path d="M40.0542 54.9176C38.1834 54.9176 36.1789 54.5502 34.0742 53.8486C23.0163 50.0401 13.0609 37.1782 11.8916 25.1515C11.3237 19.1715 12.9607 14.3274 16.5019 11.5212C19.9094 8.8486 24.6533 8.34748 29.9317 10.1515C40.9896 13.96 50.9451 26.8219 52.1143 38.8486C52.6823 44.8286 51.0453 49.6726 47.5041 52.4789C45.4662 54.1159 42.8938 54.9176 40.0542 54.9176ZM23.9852 9.24949C21.1789 9.24949 18.6734 10.0513 16.6355 11.6548C13.1277 14.4277 11.4907 19.2049 12.0587 25.1181C13.2279 37.078 23.1166 49.9065 34.1411 53.6816C39.3526 55.4522 44.0631 54.9844 47.4039 52.3452C50.9117 49.5724 52.5486 44.7951 51.9807 38.882C50.8114 26.9221 40.9228 14.0936 29.8983 10.3185C27.827 9.61697 25.8226 9.24949 23.9852 9.24949Z" fill="#DF393C"/>
<path d="M41.0548 55.118C40.1194 55.118 39.184 55.0511 38.2152 54.8841C26.6228 53.1469 14.3956 41.4543 10.9546 28.8596C9.18402 22.3785 10.0526 16.5322 13.3266 12.8574C16.1662 9.65026 20.6094 8.34736 25.821 9.11574C37.4134 10.8529 49.6406 22.5456 53.0816 35.1402C54.8522 41.6213 53.9836 47.4676 50.7096 51.1425C48.4045 53.7483 45.0303 55.118 41.0548 55.118ZM22.9479 9.08233C19.0393 9.08233 15.7319 10.4186 13.4268 12.991C10.1862 16.6324 9.35106 22.3785 11.0883 28.8262C14.4958 41.354 26.6562 52.9799 38.1818 54.7171C43.3266 55.4854 47.703 54.1825 50.5092 51.0422C53.7497 47.4008 54.5849 41.6547 52.8477 35.2071C49.4401 22.6792 37.2798 11.0534 25.7542 9.31618C24.8188 9.14915 23.8834 9.08233 22.9479 9.08233Z" fill="#DF393C"/>
<path d="M41.5515 55.1514C30.0258 55.1514 16.3622 45.4298 10.7497 33.0022C7.64278 26.1537 7.47574 19.539 10.3154 14.9287C12.5537 11.2539 16.5626 9.1158 21.5737 8.88195C33.2998 8.34743 47.5314 18.2695 53.3109 30.9978C56.4178 37.8463 56.5849 44.461 53.7452 49.0713C51.5069 52.7461 47.498 54.8842 42.4869 55.118C42.1528 55.1514 41.8521 55.1514 41.5515 55.1514ZM42.4535 54.951C47.3978 54.7171 51.3399 52.6125 53.5448 49.0044C56.351 44.4276 56.184 37.8797 53.1105 31.098C47.3644 18.4365 33.1996 8.54787 21.5737 9.0824C16.6294 9.28284 12.6873 11.4209 10.4824 15.0289C7.67618 19.6058 7.84322 26.1537 10.9167 32.9354C16.6628 45.5969 30.7942 55.4855 42.4535 54.951Z" fill="#DF393C"/>
<path d="M41.389 55.1514C30.7654 55.1514 18.2041 48.0355 11.2888 37.4788C6.81217 30.5968 5.47587 23.4142 7.61395 17.8017C9.21751 13.6258 12.5917 10.7527 17.3356 9.48321C28.7275 6.47653 44.5961 14.1269 52.7142 26.5211C57.2242 33.403 58.5605 40.5857 56.4224 46.1981C54.8188 50.3741 51.4447 53.2471 46.7008 54.5166C44.997 54.9509 43.2264 55.1514 41.389 55.1514ZM22.6139 9.04891C20.8099 9.04891 19.0393 9.24936 17.369 9.68366C12.6919 10.9197 9.38455 13.7594 7.78099 17.8685C5.6429 23.4142 6.97921 30.53 11.4558 37.3785C19.507 49.7059 35.2754 57.2895 46.6006 54.3162C51.2776 53.0801 54.585 50.2405 56.1886 46.1313C58.3266 40.5857 56.9903 33.4698 52.5137 26.6213C45.6652 16.1313 33.1707 9.04891 22.6139 9.04891Z" fill="#DF393C"/>
<path d="M40.5214 55.285C31.0337 55.285 20.1428 50.4409 12.7263 42.1558C6.91339 35.6079 4.24078 28.1246 5.41005 21.6435C6.24524 16.9665 8.98466 13.3251 13.3276 11.0533C23.9513 5.47428 40.9891 10.3518 51.3121 21.8774C57.125 28.3919 59.7976 35.8752 58.6283 42.3896C57.7931 47.0667 55.0537 50.7081 50.7107 52.9799C47.7374 54.55 44.2296 55.285 40.5214 55.285ZM23.517 8.94867C19.8421 8.94867 16.3677 9.68364 13.3945 11.2538C9.11829 13.4921 6.44568 17.1001 5.61049 21.7104C4.44123 28.158 7.08043 35.5745 12.8933 42.0556C20.2764 50.3072 31.1005 55.1179 40.5214 55.1179C44.1962 55.1179 47.6706 54.383 50.6439 52.8128C54.9201 50.5745 57.5927 46.9665 58.4279 42.3562C59.5971 35.9086 56.9579 28.4921 51.145 22.011C43.7619 13.7594 32.9379 8.94867 23.517 8.94867Z" fill="#DF393C"/>
<path d="M38.8522 55.6526C30.8678 55.6526 22.0482 52.6125 14.9992 46.7996C8.05043 41.0535 4.00812 33.6704 3.90789 26.4878C3.84108 21.3431 5.81213 16.8664 9.654 13.5257C19.0415 5.37423 36.6807 7.0112 49.0081 17.2005C55.9569 22.9466 60.0326 30.3631 60.0994 37.5457C60.1662 42.6905 58.1952 47.1671 54.3533 50.5079C50.3778 53.9822 44.8322 55.6526 38.8522 55.6526ZM25.1551 8.54795C19.242 8.54795 13.7631 10.2183 9.78763 13.6927C6.01257 16.9667 4.07493 21.3765 4.10834 26.4878C4.20856 33.6036 8.21747 40.9533 15.1328 46.666C27.3934 56.7885 44.9324 58.4255 54.2197 50.3408C57.9948 47.0669 59.9324 42.6237 59.8656 37.5457C59.7988 30.4299 55.7899 23.0802 48.8745 17.3675C41.8589 11.588 33.1061 8.54795 25.1551 8.54795Z" fill="#DF393C"/>
<path d="M36.7138 56.4877C30.5668 56.4877 24.0189 54.7839 18.1391 51.3095C10.3886 46.7327 5.00997 39.8173 3.43981 32.334C2.27055 26.7883 3.373 21.3095 6.51331 16.9331C14.1636 6.27609 31.8362 4.40527 45.8674 12.6903C53.6514 17.2672 58.9966 24.216 60.5668 31.6658C61.736 37.2115 60.6336 42.6903 57.4933 47.0667C53.0501 53.2471 45.2327 56.4877 36.7138 56.4877ZM27.2928 7.74602C18.8407 7.74602 11.0901 10.9532 6.71375 17.0667C3.54004 21.4431 2.5044 26.7215 3.67367 32.3006C5.24382 39.7171 10.5556 46.599 18.2728 51.1425C24.1191 54.6168 30.6336 56.2872 36.7472 56.2872C45.1993 56.2872 52.9498 53.0801 57.3262 46.9665C60.4999 42.5567 61.5356 37.3117 60.3663 31.7327C58.7962 24.3162 53.4844 17.4342 45.7672 12.8908C39.8875 9.4164 33.4064 7.74602 27.2928 7.74602Z" fill="#DF393C"/>
<path d="M34.6087 57.8575C30.4996 57.8575 26.2234 57.0891 22.0809 55.4855C13.896 52.3118 7.41496 46.2984 4.34146 39.0156C1.8359 33.1025 1.76908 26.7884 4.10761 21.2094C9.58645 8.28063 26.5575 2.56794 41.925 8.51449C50.1098 11.6882 56.5909 17.7016 59.6644 24.9844C62.17 30.8976 62.2368 37.2116 59.8983 42.7906C55.9228 52.245 45.7668 57.8575 34.6087 57.8575ZM29.4305 6.40981C18.3392 6.40981 8.28356 11.9555 4.34146 21.3096C2.00293 26.8218 2.06975 33.069 4.54191 38.9154C7.6154 46.1648 14.0297 52.1114 22.1811 55.2517C37.4484 61.1648 54.2858 55.5189 59.6978 42.6904C62.0363 37.1782 61.9695 30.931 59.464 25.0846C56.3905 17.8352 49.9762 11.8887 41.8248 8.74834C37.749 7.14478 33.5063 6.40981 29.4305 6.40981Z" fill="#DF393C"/>
<path d="M32.9352 59.7283C30.8974 59.7283 28.8261 59.5278 26.7214 59.1269C18.8706 57.5902 12.0221 53.3474 7.44524 47.1336C2.90181 40.9198 1.16462 33.5367 2.56774 26.2873C5.4742 11.3541 21.0421 1.73271 37.2782 4.90643C53.5143 8.04674 64.3717 22.7795 61.4653 37.7461C58.9263 50.7416 46.766 59.7283 32.9352 59.7283ZM31.0644 4.53894C17.3673 4.53894 5.30716 13.4254 2.80159 26.3207C1.39847 33.5033 3.13566 40.8196 7.67909 46.9666C12.2225 53.1136 19.0043 57.3229 26.8216 58.8597C28.8929 59.2605 30.9642 59.461 32.9686 59.461C46.6991 59.461 58.7259 50.5746 61.2314 37.6793C64.1045 22.8797 53.3472 8.24718 37.2448 5.14028C35.1735 4.73939 33.1023 4.53894 31.0644 4.53894Z" fill="#DF393C"/>
<path d="M32 62C15.4633 62 2 48.5702 2 32C2 15.4298 15.4633 2 32 2C48.5367 2 62 15.4633 62 32C62 48.5367 48.5702 62 32 62ZM32 2.26726C15.5969 2.26726 2.23385 15.6303 2.23385 32.0334C2.23385 48.4365 15.5969 61.7996 32 61.7996C48.4031 61.7996 61.7661 48.4365 61.7661 32.0334C61.7661 15.6303 48.4031 2.26726 32 2.26726Z" fill="#DF393C"/>
</svg>
