<svg width="832" height="832" viewBox="0 0 832 832" fill="none" xmlns="http://www.w3.org/2000/svg">
<path d="M416 0C645.75 0 832 186.25 832 416C832 645.75 645.75 832 416 832C186.25 832 0 645.75 0 416C0 186.25 186.25 0 416 0ZM416 1C186.802 1 1 186.802 1 416C1 645.198 186.802 831 416 831C645.198 831 831 645.198 831 416C831 186.802 645.198 1 416 1ZM416 105C587.761 105 727 244.239 727 416C727 587.761 587.761 727 416 727C244.239 727 105 587.761 105 416C105 244.239 244.239 105 416 105ZM416 106C244.792 106 106 244.792 106 416C106 587.208 244.792 726 416 726C587.208 726 726 587.208 726 416C726 244.792 587.208 106 416 106ZM416 208C530.875 208 624 301.125 624 416C624 530.875 530.875 624 416 624C301.125 624 208 530.875 208 416C208 301.125 301.125 208 416 208ZM416 209C301.677 209 209 301.677 209 416C209 530.323 301.677 623 416 623C530.323 623 623 530.323 623 416C623 301.677 530.323 209 416 209Z" fill="#D9D9D9"/>
<rect x="268" y="274" width="296" height="296" rx="148" fill="url(#paint0_linear_101_5021)"/>
<path d="M405.762 394.618V368.031H426.791V386.682L405.762 394.618Z" fill="white"/>
<path d="M405.762 455.095V416.206L426.791 402.635V455.095H405.762Z" fill="white"/>
<path d="M483.684 476.682L459.004 462.793V337L483.684 352.317V476.682Z" fill="white"/>
<path d="M373.068 507L348.309 493.349L459.011 462.793L483.69 476.682L373.068 507Z" fill="white"/>
<path d="M373.068 507L348.309 493.349L348.388 452.715L373.068 436.762V507Z" fill="white"/>
<path d="M373.139 352.317L348.539 337H459.003L483.683 352.317H373.139Z" fill="white"/>
<path d="M373.139 407.079L348.698 416.047L348.539 337L373.139 352.317V407.079Z" fill="white"/>
<defs>
<linearGradient id="paint0_linear_101_5021" x1="268" y1="422" x2="564" y2="422" gradientUnits="userSpaceOnUse">
<stop stop-color="#E96624"/>
<stop offset="0.25" stop-color="#D1304B"/>
<stop offset="0.5" stop-color="#BC2B52"/>
<stop offset="0.75" stop-color="#901F5E"/>
<stop offset="1" stop-color="#3F61CA"/>
</linearGradient>
</defs>
</svg>
