<svg width="1440" height="720" viewBox="0 0 1440 720" fill="none" xmlns="http://www.w3.org/2000/svg">
<rect x="0.5" y="0.5" width="79" height="79" fill="#111111" stroke="#2C1919"/>
<rect x="80.5" y="0.5" width="79" height="79" fill="#111111" stroke="#2C1919"/>
<rect x="160.5" y="0.5" width="79" height="79" fill="#111111" stroke="#111111"/>
<rect x="240.5" y="0.5" width="79" height="79" fill="#111111" stroke="#2C1919"/>
<rect x="320.5" y="0.5" width="79" height="79" fill="#111111" stroke="#2C1919"/>
<rect x="400.5" y="0.5" width="79" height="79" fill="#111111" stroke="#111111"/>
<rect x="480.5" y="0.5" width="79" height="79" fill="#111111" stroke="#2C1919"/>
<rect x="560.5" y="0.5" width="79" height="79" fill="#111111" stroke="#2C1919"/>
<rect x="640.5" y="0.5" width="79" height="79" fill="#2C1919" stroke="#111111"/>
<rect x="720.5" y="0.5" width="79" height="79" fill="#111111" stroke="#2C1919"/>
<rect x="800.5" y="0.5" width="79" height="79" fill="#111111" stroke="#2C1919"/>
<rect x="880.5" y="0.5" width="79" height="79" fill="#111111" stroke="#2C1919"/>
<rect x="960.5" y="0.5" width="79" height="79" fill="#111111" stroke="#2C1919"/>
<rect x="1040.5" y="0.5" width="79" height="79" fill="#111111" stroke="#2C1919"/>
<rect x="1120.5" y="0.5" width="79" height="79" fill="#111111" stroke="#2C1919"/>
<rect x="1200.5" y="0.5" width="79" height="79" fill="#111111" stroke="#2C1919"/>
<rect x="1280.5" y="0.5" width="79" height="79" fill="#111111" stroke="#2C1919"/>
<rect x="1360.5" y="0.5" width="79" height="79" fill="#111111" stroke="#111111"/>
<rect x="0.5" y="80.5" width="79" height="79" fill="#2C1919" stroke="#111111"/>
<rect x="80.5" y="80.5" width="79" height="79" fill="#111111" stroke="#2C1919"/>
<rect x="160.5" y="80.5" width="79" height="79" fill="#111111" stroke="#2C1919"/>
<rect x="240.5" y="80.5" width="79" height="79" fill="#111111" stroke="#2C1919"/>
<rect x="320.5" y="80.5" width="79" height="79" fill="#2C1919" stroke="#111111"/>
<rect x="400.5" y="80.5" width="79" height="79" fill="#111111" stroke="#2C1919"/>
<rect x="480.5" y="80.5" width="79" height="79" fill="#111111" stroke="#2C1919"/>
<rect x="560.5" y="80.5" width="79" height="79" fill="#111111" stroke="#2C1919"/>
<rect x="640.5" y="80.5" width="79" height="79" fill="#111111" stroke="#2C1919"/>
<rect x="720.5" y="80.5" width="79" height="79" fill="#111111" stroke="#2C1919"/>
<rect x="800.5" y="80.5" width="79" height="79" fill="#111111" stroke="#111111"/>
<rect x="880.5" y="80.5" width="79" height="79" fill="#111111" stroke="#2C1919"/>
<rect x="960.5" y="80.5" width="79" height="79" fill="#111111" stroke="#2C1919"/>
<rect x="1040.5" y="80.5" width="79" height="79" fill="#111111" stroke="#2C1919"/>
<rect x="1120.5" y="80.5" width="79" height="79" fill="#111111" stroke="#111111"/>
<rect x="1200.5" y="80.5" width="79" height="79" fill="#111111" stroke="#2C1919"/>
<rect x="1280.5" y="80.5" width="79" height="79" fill="#111111" stroke="#2C1919"/>
<rect x="1360.5" y="80.5" width="79" height="79" fill="#2C1919" stroke="#111111"/>
<rect x="0.5" y="160.5" width="79" height="79" fill="#111111" stroke="#2C1919"/>
<rect x="80.5" y="160.5" width="79" height="79" fill="#111111" stroke="#2C1919"/>
<rect x="160.5" y="160.5" width="79" height="79" fill="#111111" stroke="#2C1919"/>
<rect x="240.5" y="160.5" width="79" height="79" fill="#111111" stroke="#2C1919"/>
<rect x="320.5" y="160.5" width="79" height="79" fill="#111111" stroke="#2C1919"/>
<rect x="400.5" y="160.5" width="79" height="79" fill="#111111" stroke="#2C1919"/>
<rect x="480.5" y="160.5" width="79" height="79" fill="#111111" stroke="#2C1919"/>
<rect x="560.5" y="160.5" width="79" height="79" fill="#111111" stroke="#111111"/>
<rect x="640.5" y="160.5" width="79" height="79" fill="#111111" stroke="#2C1919"/>
<rect x="720.5" y="160.5" width="79" height="79" fill="#111111" stroke="#2C1919"/>
<rect x="800.5" y="160.5" width="79" height="79" fill="#111111" stroke="#2C1919"/>
<rect x="880.5" y="160.5" width="79" height="79" fill="#111111" stroke="#2C1919"/>
<rect x="960.5" y="160.5" width="79" height="79" fill="#111111" stroke="#2C1919"/>
<rect x="1040.5" y="160.5" width="79" height="79" fill="#111111" stroke="#2C1919"/>
<rect x="1120.5" y="160.5" width="79" height="79" fill="#111111" stroke="#2C1919"/>
<rect x="1200.5" y="160.5" width="79" height="79" fill="#111111" stroke="#2C1919"/>
<rect x="1280.5" y="160.5" width="79" height="79" fill="#111111" stroke="#2C1919"/>
<rect x="1360.5" y="160.5" width="79" height="79" fill="#111111" stroke="#2C1919"/>
<rect x="0.5" y="240.5" width="79" height="79" fill="#111111" stroke="#2C1919"/>
<rect x="80.5" y="240.5" width="79" height="79" fill="#111111" stroke="#2C1919"/>
<rect x="160.5" y="240.5" width="79" height="79" fill="#111111" stroke="#111111"/>
<rect x="240.5" y="240.5" width="79" height="79" fill="#111111" stroke="#2C1919"/>
<rect x="320.5" y="240.5" width="79" height="79" fill="#111111" stroke="#2C1919"/>
<rect x="400.5" y="240.5" width="79" height="79" fill="#111111" stroke="#2C1919"/>
<rect x="480.5" y="240.5" width="79" height="79" fill="#111111" stroke="#2C1919"/>
<rect x="560.5" y="240.5" width="79" height="79" fill="#111111" stroke="#2C1919"/>
<rect x="640.5" y="240.5" width="79" height="79" fill="#111111" stroke="#2C1919"/>
<rect x="720.5" y="240.5" width="79" height="79" fill="#111111" stroke="#2C1919"/>
<rect x="800.5" y="240.5" width="79" height="79" fill="#111111" stroke="#2C1919"/>
<rect x="880.5" y="240.5" width="79" height="79" fill="#111111" stroke="#2C1919"/>
<rect x="960.5" y="240.5" width="79" height="79" fill="#111111" stroke="#111111"/>
<rect x="1040.5" y="240.5" width="79" height="79" fill="#111111" stroke="#2C1919"/>
<rect x="1120.5" y="240.5" width="79" height="79" fill="#111111" stroke="#2C1919"/>
<rect x="1200.5" y="240.5" width="79" height="79" fill="#111111" stroke="#2C1919"/>
<rect x="1280.5" y="240.5" width="79" height="79" fill="#111111" stroke="#2C1919"/>
<rect x="1360.5" y="240.5" width="79" height="79" fill="#111111" stroke="#111111"/>
<rect x="0.5" y="320.5" width="79" height="79" fill="#111111" stroke="#111111"/>
<rect x="80.5" y="320.5" width="79" height="79" fill="#111111" stroke="#2C1919"/>
<rect x="160.5" y="320.5" width="79" height="79" fill="#111111" stroke="#2C1919"/>
<rect x="240.5" y="320.5" width="79" height="79" fill="#111111" stroke="#2C1919"/>
<rect x="320.5" y="320.5" width="79" height="79" fill="#111111" stroke="#2C1919"/>
<rect x="400.5" y="320.5" width="79" height="79" fill="#111111" stroke="#111111"/>
<rect x="480.5" y="320.5" width="79" height="79" fill="#111111" stroke="#2C1919"/>
<rect x="560.5" y="320.5" width="79" height="79" fill="#111111" stroke="#2C1919"/>
<rect x="640.5" y="320.5" width="79" height="79" fill="#111111" stroke="#2C1919"/>
<rect x="720.5" y="320.5" width="79" height="79" fill="#111111" stroke="#111111"/>
<rect x="800.5" y="320.5" width="79" height="79" fill="#111111" stroke="#2C1919"/>
<rect x="880.5" y="320.5" width="79" height="79" fill="#111111" stroke="#2C1919"/>
<rect x="960.5" y="320.5" width="79" height="79" fill="#111111" stroke="#2C1919"/>
<rect x="1040.5" y="320.5" width="79" height="79" fill="#111111" stroke="#2C1919"/>
<rect x="1120.5" y="320.5" width="79" height="79" fill="#111111" stroke="#2C1919"/>
<rect x="1200.5" y="320.5" width="79" height="79" fill="#111111" stroke="#2C1919"/>
<rect x="1280.5" y="320.5" width="79" height="79" fill="#2C1919" stroke="#111111"/>
<rect x="1360.5" y="320.5" width="79" height="79" fill="#111111" stroke="#2C1919"/>
<rect x="0.5" y="400.5" width="79" height="79" fill="#111111" stroke="#2C1919"/>
<rect x="80.5" y="400.5" width="79" height="79" fill="#111111" stroke="#2C1919"/>
<rect x="160.5" y="400.5" width="79" height="79" fill="#2C1919" stroke="#111111"/>
<rect x="240.5" y="400.5" width="79" height="79" fill="#111111" stroke="#2C1919"/>
<rect x="320.5" y="400.5" width="79" height="79" fill="#111111" stroke="#2C1919"/>
<rect x="400.5" y="400.5" width="79" height="79" fill="#111111" stroke="#2C1919"/>
<rect x="480.5" y="400.5" width="79" height="79" fill="#111111" stroke="#2C1919"/>
<rect x="560.5" y="400.5" width="79" height="79" fill="#111111" stroke="#2C1919"/>
<rect x="640.5" y="400.5" width="79" height="79" fill="#111111" stroke="#2C1919"/>
<rect x="720.5" y="400.5" width="79" height="79" fill="#111111" stroke="#2C1919"/>
<rect x="800.5" y="400.5" width="79" height="79" fill="#111111" stroke="#2C1919"/>
<rect x="880.5" y="400.5" width="79" height="79" fill="#111111" stroke="#2C1919"/>
<rect x="960.5" y="400.5" width="79" height="79" fill="#111111" stroke="#111111"/>
<rect x="1040.5" y="400.5" width="79" height="79" fill="#111111" stroke="#2C1919"/>
<rect x="1120.5" y="400.5" width="79" height="79" fill="#111111" stroke="#2C1919"/>
<rect x="1200.5" y="400.5" width="79" height="79" fill="#111111" stroke="#2C1919"/>
<rect x="1280.5" y="400.5" width="79" height="79" fill="#111111" stroke="#2C1919"/>
<rect x="1360.5" y="400.5" width="79" height="79" fill="#111111" stroke="#2C1919"/>
<rect x="0.5" y="480.5" width="79" height="79" fill="#111111" stroke="#2C1919"/>
<rect x="80.5" y="480.5" width="79" height="79" fill="#111111" stroke="#2C1919"/>
<rect x="160.5" y="480.5" width="79" height="79" fill="#111111" stroke="#2C1919"/>
<rect x="240.5" y="480.5" width="79" height="79" fill="#111111" stroke="#2C1919"/>
<rect x="320.5" y="480.5" width="79" height="79" fill="#111111" stroke="#111111"/>
<rect x="400.5" y="480.5" width="79" height="79" fill="#111111" stroke="#2C1919"/>
<rect x="480.5" y="480.5" width="79" height="79" fill="#111111" stroke="#2C1919"/>
<rect x="560.5" y="480.5" width="79" height="79" fill="#111111" stroke="#2C1919"/>
<rect x="640.5" y="480.5" width="79" height="79" fill="#111111" stroke="#2C1919"/>
<rect x="720.5" y="480.5" width="79" height="79" fill="#111111" stroke="#2C1919"/>
<rect x="800.5" y="480.5" width="79" height="79" fill="#111111" stroke="#2C1919"/>
<rect x="880.5" y="480.5" width="79" height="79" fill="#111111" stroke="#2C1919"/>
<rect x="960.5" y="480.5" width="79" height="79" fill="#111111" stroke="#2C1919"/>
<rect x="1040.5" y="480.5" width="79" height="79" fill="#111111" stroke="#2C1919"/>
<rect x="1120.5" y="480.5" width="79" height="79" fill="#111111" stroke="#2C1919"/>
<rect x="1200.5" y="480.5" width="79" height="79" fill="#111111" stroke="#2C1919"/>
<rect x="1280.5" y="480.5" width="79" height="79" fill="#111111" stroke="#2C1919"/>
<rect x="1360.5" y="480.5" width="79" height="79" fill="#111111" stroke="#2C1919"/>
<rect x="0.5" y="560.5" width="79" height="79" fill="#111111" stroke="#2C1919"/>
<rect x="80.5" y="560.5" width="79" height="79" fill="#111111" stroke="#111111"/>
<rect x="160.5" y="560.5" width="79" height="79" fill="#111111" stroke="#2C1919"/>
<rect x="240.5" y="560.5" width="79" height="79" fill="#111111" stroke="#2C1919"/>
<rect x="320.5" y="560.5" width="79" height="79" fill="#111111" stroke="#2C1919"/>
<rect x="400.5" y="560.5" width="79" height="79" fill="#111111" stroke="#2C1919"/>
<rect x="480.5" y="560.5" width="79" height="79" fill="#111111" stroke="#2C1919"/>
<rect x="560.5" y="560.5" width="79" height="79" fill="#111111" stroke="#2C1919"/>
<rect x="640.5" y="560.5" width="79" height="79" fill="#111111" stroke="#2C1919"/>
<rect x="720.5" y="560.5" width="79" height="79" fill="#111111" stroke="#2C1919"/>
<rect x="800.5" y="560.5" width="79" height="79" fill="#111111" stroke="#2C1919"/>
<rect x="880.5" y="560.5" width="79" height="79" fill="#111111" stroke="#2C1919"/>
<rect x="960.5" y="560.5" width="79" height="79" fill="#2C1919" stroke="#111111"/>
<rect x="1040.5" y="560.5" width="79" height="79" fill="#111111" stroke="#2C1919"/>
<rect x="1120.5" y="560.5" width="79" height="79" fill="#111111" stroke="#111111"/>
<rect x="1200.5" y="560.5" width="79" height="79" fill="#111111" stroke="#2C1919"/>
<rect x="1280.5" y="560.5" width="79" height="79" fill="#111111" stroke="#111111"/>
<rect x="1360.5" y="560.5" width="79" height="79" fill="#2C1919" stroke="#111111"/>
<rect x="0.5" y="640.5" width="79" height="79" fill="#111111" stroke="#2C1919"/>
<rect x="80.5" y="640.5" width="79" height="79" fill="#111111" stroke="#2C1919"/>
<rect x="160.5" y="640.5" width="79" height="79" fill="#111111" stroke="#2C1919"/>
<rect x="240.5" y="640.5" width="79" height="79" fill="#111111" stroke="#2C1919"/>
<rect x="320.5" y="640.5" width="79" height="79" fill="#111111" stroke="#2C1919"/>
<rect x="400.5" y="640.5" width="79" height="79" fill="#111111" stroke="#2C1919"/>
<rect x="480.5" y="640.5" width="79" height="79" fill="#111111" stroke="#2C1919"/>
<rect x="560.5" y="640.5" width="79" height="79" fill="#111111" stroke="#111111"/>
<rect x="640.5" y="640.5" width="79" height="79" fill="#111111" stroke="#2C1919"/>
<rect x="720.5" y="640.5" width="79" height="79" fill="#111111" stroke="#2C1919"/>
<rect x="800.5" y="640.5" width="79" height="79" fill="#111111" stroke="#2C1919"/>
<rect x="880.5" y="640.5" width="79" height="79" fill="#111111" stroke="#2C1919"/>
<rect x="960.5" y="640.5" width="79" height="79" fill="#2C1919" stroke="#111111"/>
<rect x="1040.5" y="640.5" width="79" height="79" fill="#111111" stroke="#2C1919"/>
<rect x="1120.5" y="640.5" width="79" height="79" fill="#111111" stroke="#2C1919"/>
<rect x="1200.5" y="640.5" width="79" height="79" fill="#111111" stroke="#2C1919"/>
<rect x="1280.5" y="640.5" width="79" height="79" fill="#111111" stroke="#2C1919"/>
<rect x="1360.5" y="640.5" width="79" height="79" fill="#111111" stroke="#2C1919"/>
</svg>
