<svg width="40" height="40" viewBox="0 0 40 40" fill="none" xmlns="http://www.w3.org/2000/svg">
<path d="M5.95078 35.5858L2.82422 0.518616H37.1792L34.0492 35.5805L19.9808 39.4805L5.95078 35.5858Z" fill="#E44D26"/>
<path d="M20 36.5L31.3681 33.3481L34.0428 3.38623H20V36.5Z" fill="#F16529"/>
<path d="M20.0034 16.3923H14.3122L13.9191 11.9879H20.0034V7.68732H9.21875L9.32187 8.84107L10.3787 20.6933H20.0034V16.3923ZM20.0034 27.562L19.9844 27.5673L15.1947 26.2736L14.8887 22.8439H10.5709L11.1734 29.5967L19.9837 32.0423L20.0034 32.037V27.562Z" fill="#EBEBEB"/>
<path d="M19.9883 16.3923V20.6933H25.2842L24.7852 26.2711L19.9883 27.5658V32.0404L28.8055 29.5967L28.8702 28.8701L29.8808 17.5473L29.9855 16.3923H28.8267H19.9883ZM19.9883 7.68732V11.9879H30.377L30.4633 11.0217L30.6595 8.84107L30.7623 7.68732H19.9883Z" fill="white"/>
</svg>
