<svg width="36" height="36" viewBox="0 0 36 36" fill="none" xmlns="http://www.w3.org/2000/svg">
<path fill-rule="evenodd" clip-rule="evenodd" d="M18.0059 0.899902C22.6492 0.899902 23.2309 0.919496 25.0615 1.00635C26.8785 1.08654 28.1211 1.38043 29.21 1.80127C30.3323 2.23549 31.2877 2.82343 32.2363 3.77197C33.1917 4.72066 33.7734 5.67626 34.1943 6.81201C34.6152 7.89422 34.9091 9.1435 34.9893 10.9604C35.0694 12.7843 35.0898 13.366 35.0898 18.0093C35.0898 22.6521 35.0694 23.2336 34.9893 25.0571C34.9091 26.8743 34.6152 28.1176 34.1943 29.2065C33.7601 30.3288 33.1722 31.2843 32.2236 32.2329C31.2749 33.1816 30.3187 33.7694 29.1963 34.2036C28.114 34.6244 26.8649 34.9184 25.0479 34.9985C23.2239 35.0787 22.6424 35.0991 17.999 35.0991C13.3558 35.0991 12.7741 35.0787 10.9502 34.9985C9.13321 34.9183 7.89067 34.6245 6.80176 34.2036C5.67939 33.7694 4.72406 33.1815 3.77539 32.2329C2.82001 31.2842 2.2388 30.3288 1.79785 29.1997C1.37697 28.1175 1.08313 26.8683 1.00293 25.0513C0.922757 23.2274 0.902344 22.6457 0.902344 18.0024C0.902344 13.3595 0.922766 12.7781 1.00293 10.9478C1.0831 9.13055 1.37694 7.88733 1.79785 6.79834C2.23879 5.6761 2.8201 4.72056 3.77539 3.77197C4.72403 2.81673 5.67957 2.23534 6.80859 1.79443C7.89081 1.37361 9.14008 1.0797 10.957 0.999512C12.781 0.919341 13.3625 0.899902 18.0059 0.899902ZM18.0059 3.979C13.436 3.979 12.8949 3.99942 11.0977 4.07959C9.43407 4.15308 8.52512 4.43365 7.92383 4.66748C7.12893 4.97478 6.56118 5.34264 5.95996 5.94385C5.36543 6.53839 4.9909 7.11275 4.68359 7.90771C4.44976 8.509 4.16919 9.41141 4.0957 11.0815C4.01555 12.8783 3.99609 13.4198 3.99609 17.9888C3.99609 22.5516 4.01554 23.0934 4.0957 24.897C4.16919 26.5605 4.44976 27.4695 4.68359 28.0708C4.99091 28.8658 5.35872 29.4334 5.95996 30.0347C6.55452 30.6292 7.12891 31.0037 7.92383 31.311C8.52512 31.5449 9.42739 31.8254 11.0977 31.8989C12.8949 31.9791 13.436 31.9995 18.0059 31.9995C22.569 31.9995 23.1102 31.9791 24.9141 31.8989C26.5777 31.8254 27.4866 31.5449 28.0879 31.311C28.8828 31.0037 29.4505 30.6359 30.0518 30.0347C30.6463 29.4401 31.0208 28.8658 31.3281 28.0708C31.562 27.4695 31.8425 26.5672 31.916 24.897C31.9962 23.1 32.0156 22.5583 32.0156 17.9888C32.0156 13.4264 31.9962 12.885 31.916 11.0815C31.8425 9.41807 31.562 8.509 31.3281 7.90771C31.0208 7.11274 30.653 6.54509 30.0518 5.94385C29.4572 5.34931 28.8828 4.97479 28.0879 4.66748C27.4866 4.43365 26.5843 4.15308 24.9141 4.07959C23.1169 3.99942 22.5757 3.979 18.0059 3.979ZM18.0039 9.21826C22.8544 9.21826 26.79 13.1531 26.79 18.0034C26.7899 22.8536 22.8543 26.7886 18.0039 26.7886C13.1537 26.7883 9.21888 22.8535 9.21875 18.0034C9.21875 13.1532 13.1537 9.21851 18.0039 9.21826ZM18.0039 12.3042C14.8573 12.3044 12.3057 14.8569 12.3057 18.0034C12.3058 21.1499 14.8574 23.7014 18.0039 23.7017C21.1506 23.7017 23.703 21.15 23.7031 18.0034C23.7031 14.8567 21.1507 12.3042 18.0039 12.3042ZM27.1367 6.81885C28.2657 6.81885 29.1883 7.74067 29.1885 8.86963C29.1885 10.0054 28.2658 10.9214 27.1367 10.9214C26.0011 10.9212 25.0859 9.9986 25.0859 8.86963C25.0861 7.7341 26.0078 6.81901 27.1367 6.81885Z" fill="#D1D1D1"/>
</svg>
