<svg width="22" height="40" viewBox="0 0 22 40" fill="none" xmlns="http://www.w3.org/2000/svg">
<path fill-rule="evenodd" clip-rule="evenodd" d="M7.10924 21.2179C7.10924 21.2179 6.06137 21.8277 7.85576 22.0336C10.0302 22.2819 11.1409 22.2462 13.5364 21.7931C13.5364 21.7931 14.1671 22.1879 15.0474 22.5296C9.67587 24.8313 2.8907 22.3964 7.10924 21.2179ZM6.45261 18.2143C6.45261 18.2143 5.27707 19.0844 7.07305 19.2701C9.39592 19.51 11.2295 19.5296 14.4042 18.9187C14.4042 18.9187 14.8426 19.3637 15.5324 19.6067C9.03882 21.5061 1.80664 19.7563 6.45261 18.2143Z" fill="#E73645"/>
<path fill-rule="evenodd" clip-rule="evenodd" d="M11.9871 13.1188C13.3113 14.6431 11.64 16.0139 11.64 16.0139C11.64 16.0139 15.0007 14.2794 13.4572 12.1065C12.016 10.0811 10.9106 9.07486 16.8944 5.60489C16.8944 5.60489 7.50136 7.94984 11.9871 13.1188Z" fill="#E73645"/>
<path fill-rule="evenodd" clip-rule="evenodd" d="M19.0905 23.4394C19.0905 23.4394 19.8662 24.079 18.2361 24.5735C15.1364 25.5124 5.33264 25.7955 2.60942 24.6109C1.6312 24.1848 3.46656 23.5942 4.04397 23.4694C4.6462 23.3393 4.98987 23.3629 4.98987 23.3629C3.90127 22.5964 -2.04657 24.8685 1.96918 25.5203C12.9194 27.2958 21.9305 24.721 19.0905 23.4394ZM7.61431 15.1016C7.61431 15.1016 2.62808 16.2862 5.84883 16.7168C7.20919 16.8987 9.91898 16.8568 12.4451 16.6449C14.509 16.4717 16.5806 16.1012 16.5806 16.1012C16.5806 16.1012 15.8534 16.4132 15.3265 16.7724C10.2622 18.1045 0.480462 17.4841 3.29677 16.1223C5.6779 14.9705 7.61431 15.1016 7.61431 15.1016ZM16.5599 20.1012C21.7074 17.4269 19.3274 14.8564 17.6658 15.2028C17.2595 15.2877 17.0772 15.361 17.0772 15.361C17.0772 15.361 17.2288 15.1239 17.5169 15.0219C20.8037 13.8668 23.3309 18.4295 16.4572 20.2364C16.457 20.2364 16.5362 20.1649 16.5599 20.1012Z" fill="#E73645"/>
<path fill-rule="evenodd" clip-rule="evenodd" d="M13.4555 0C13.4555 0 16.3058 2.85204 10.7514 7.23627C6.29711 10.7545 9.73589 12.7599 10.7501 15.052C8.14953 12.7061 6.24203 10.6407 7.52159 8.71885C9.40019 5.89776 14.6056 4.52967 13.4555 0Z" fill="#E73645"/>
<path fill-rule="evenodd" clip-rule="evenodd" d="M8.12115 27.3505C13.0614 27.6664 20.6493 27.175 20.8293 24.8369C20.8293 24.8369 20.4839 25.7232 16.746 26.4262C12.5288 27.2201 7.3266 27.1277 4.24219 26.6186C4.24219 26.6186 4.87423 27.1416 8.12115 27.3505Z" fill="#E73645"/>
<path fill-rule="evenodd" clip-rule="evenodd" d="M20.6006 31.5433H20.4504V31.4591H20.8558V31.5433H20.7056V31.9639H20.6006V31.5433ZM21.4095 31.5643H21.4077L21.2584 31.9637H21.1899L21.0415 31.5643H21.0397V31.9637H20.94V31.4589H21.0863L21.2238 31.816L21.3613 31.4589H21.5063V31.9637H21.4097L21.4095 31.5643ZM7.31115 36.2831C6.84526 36.6868 6.35273 36.914 5.91051 36.914C5.28052 36.914 4.93866 36.5355 4.93866 35.9298C4.93866 35.2741 5.30464 34.7943 6.76947 34.7943H7.31092L7.31115 36.2831ZM8.59708 37.7338V33.2428C8.59708 32.095 7.94251 31.3376 6.36457 31.3376C5.44393 31.3376 4.63687 31.565 3.9807 31.8547L4.16961 32.6501C4.68648 32.4603 5.35471 32.2844 6.01065 32.2844C6.91968 32.2844 7.31092 32.6501 7.31092 33.4074V33.9752H6.85664C4.64848 33.9752 3.65205 34.8319 3.65205 36.1199C3.65205 37.2297 4.30867 37.8606 5.54476 37.8606C6.33931 37.8606 6.93288 37.5326 7.48709 37.0526L7.58791 37.7338H8.59708ZM12.8889 37.7338H11.2855L9.35476 31.4518H10.7554L11.9537 35.3121L12.2205 36.472C12.825 34.7943 13.254 33.0912 13.4686 31.4518H14.8306C14.4659 33.5203 13.8091 35.7912 12.8889 37.7338ZM19.0425 36.2831C18.5752 36.6868 18.0827 36.914 17.6414 36.914C17.0114 36.914 16.67 36.5355 16.67 35.9298C16.67 35.2741 17.0362 34.7943 18.5001 34.7943H19.0425V36.2831ZM20.3289 37.7338V33.2428C20.3289 32.095 19.6723 31.3376 18.0959 31.3376C17.1744 31.3376 16.3675 31.565 15.7114 31.8547L15.9003 32.6501C16.4171 32.4603 17.0867 32.2844 17.7429 32.2844C18.6506 32.2844 19.0423 32.6501 19.0423 33.4074V33.9752H18.588C16.3796 33.9752 15.3838 34.8319 15.3838 36.1199C15.3838 37.2297 16.0391 37.8606 17.2754 37.8606C18.0707 37.8606 18.6633 37.5326 19.2189 37.0526L19.3202 37.7338H20.3289ZM2.24207 38.8012C1.87564 39.3368 1.28297 39.7608 0.635 40L0 39.2521C0.493661 38.9988 0.916539 38.5898 1.11341 38.2092C1.28297 37.8701 1.35376 37.434 1.35376 36.3903L1.35376 29.2175H2.72049L2.72049 36.2913C2.72049 37.6874 2.60896 38.2516 2.24207 38.8012Z" fill="#E73645"/>
</svg>
