<svg width="35" height="35" viewBox="0 0 35 35" fill="none" xmlns="http://www.w3.org/2000/svg">
<path d="M31.6684 0H2.52492C1.12887 0 0 1.10215 0 2.4648V31.7285C0 33.0912 1.12887 34.2 2.52492 34.2H31.6684C33.0645 34.2 34.2 33.0912 34.2 31.7352V2.4648C34.2 1.10215 33.0645 0 31.6684 0ZM10.1464 29.1435H5.06988V12.8183H10.1464V29.1435ZM7.60816 10.594C5.97832 10.594 4.66242 9.27809 4.66242 7.65492C4.66242 6.03176 5.97832 4.71586 7.60816 4.71586C9.23133 4.71586 10.5472 6.03176 10.5472 7.65492C10.5472 9.27141 9.23133 10.594 7.60816 10.594ZM29.1435 29.1435H24.0736V21.208C24.0736 19.3177 24.0402 16.8796 21.4351 16.8796C18.7966 16.8796 18.3959 18.9436 18.3959 21.0744V29.1435H13.3327V12.8183H18.1955V15.0493H18.2623C18.9369 13.7668 20.5935 12.4109 23.0583 12.4109C28.195 12.4109 29.1435 15.7908 29.1435 20.186V29.1435Z" fill="#D1D1D1"/>
</svg>
