<svg width="40" height="40" viewBox="0 0 40 40" fill="none" xmlns="http://www.w3.org/2000/svg">
<path d="M20 23.0927C21.7259 23.0927 23.125 21.6936 23.125 19.9677C23.125 18.2418 21.7259 16.8427 20 16.8427C18.2741 16.8427 16.875 18.2418 16.875 19.9677C16.875 21.6936 18.2741 23.0927 20 23.0927Z" fill="#00D8FF"/>
<path d="M20 27.1326C16.2439 27.2231 12.4973 26.7168 8.9 25.6326C7.23828 25.1058 5.68842 24.276 4.32875 23.1851C3.80973 22.8126 3.37753 22.3321 3.06185 21.7767C2.74617 21.2213 2.55449 20.6041 2.5 19.9676C2.5 17.9013 4.77 15.8763 8.5725 14.5513C12.2661 13.3782 16.125 12.8092 20 12.8663C23.8233 12.8135 27.6306 13.3722 31.2775 14.5213C32.8776 15.0321 34.3748 15.8218 35.7 16.8538C36.2094 17.2097 36.6346 17.6729 36.9456 18.2109C37.2566 18.7489 37.4459 19.3485 37.5 19.9676C37.5 22.1151 34.9625 24.2913 30.875 25.6438C27.3474 26.693 23.6798 27.1951 20 27.1326ZM20 14.3613C16.2927 14.3129 12.6013 14.8538 9.06375 15.9638C5.56375 17.1851 3.995 18.8551 3.995 19.9638C3.995 21.1238 5.68125 22.9476 9.38375 24.2138C12.825 25.2464 16.4083 25.7269 20 25.6376C23.5205 25.7005 27.0299 25.2242 30.4062 24.2251C34.25 22.9513 36 21.1251 36 19.9676C35.9367 19.5704 35.7919 19.1907 35.5746 18.8523C35.3573 18.5139 35.0723 18.2242 34.7375 18.0013C33.5521 17.0854 32.2146 16.3855 30.7862 15.9338C27.2974 14.8393 23.6562 14.3085 20 14.3613Z" fill="#00D8FF"/>
<path d="M12.8995 35.5538C12.3164 35.5671 11.7402 35.4257 11.2295 35.1438C9.43951 34.1113 8.81951 31.1338 9.57076 27.1776C10.4 23.3917 11.8352 19.7646 13.8208 16.4363C15.6846 13.098 18.0701 10.0791 20.887 7.49383C22.1288 6.36271 23.5609 5.46007 25.117 4.82758C25.6802 4.5645 26.2942 4.42816 26.9158 4.42816C27.5373 4.42816 28.1514 4.5645 28.7145 4.82758C30.5758 5.90008 31.192 9.18508 30.3233 13.4013C29.4695 16.9821 28.0716 20.4107 26.1783 23.5676C24.3802 26.8666 22.0697 29.8593 19.3333 32.4338C18.0467 33.6098 16.5537 34.5375 14.9295 35.1701C14.2795 35.412 13.593 35.5418 12.8995 35.5538ZM15.1158 17.1788C13.2219 20.366 11.8464 23.8338 11.0408 27.4526C10.3495 31.0963 11.0133 33.2876 11.9783 33.8451C12.9783 34.4238 15.4058 33.8751 18.3533 31.3001C20.9659 28.8339 23.1712 25.9692 24.887 22.8126C26.7007 19.7945 28.0416 16.5165 28.8633 13.0926C29.6808 9.12383 28.9745 6.69383 27.972 6.11633C27.5962 5.97259 27.1947 5.90826 26.7929 5.92741C26.391 5.94655 25.9974 6.04876 25.637 6.22758C24.2517 6.7994 22.978 7.61099 21.8745 8.62508C19.1834 11.1016 16.9048 13.9917 15.1245 17.1863L15.1158 17.1788Z" fill="#00D8FF"/>
<path d="M27.0907 35.57C25.397 35.57 23.2457 34.545 21.0057 32.6187C18.1398 30.0097 15.714 26.9549 13.822 23.5725C11.8609 20.2902 10.4371 16.7155 9.60448 12.9837C9.24424 11.3418 9.17738 9.64899 9.40698 7.98372C9.46096 7.36617 9.64938 6.76791 9.95903 6.23088C10.2687 5.69386 10.6921 5.23107 11.1995 4.87497C13.0582 3.79872 16.212 4.90497 19.4307 7.76247C22.1065 10.2902 24.3787 13.2134 26.1682 16.43C28.1283 19.6356 29.567 23.132 30.4307 26.7887C30.8071 28.4909 30.8652 30.248 30.602 31.9712C30.5396 32.6068 30.3404 33.2213 30.018 33.7726C29.6957 34.3239 29.2578 34.7989 28.7345 35.165C28.232 35.4428 27.6648 35.5826 27.0907 35.57ZM15.1157 22.82C16.9309 26.0524 19.2481 28.9759 21.9807 31.4812C24.792 33.9 27.022 34.42 27.9807 33.8562C28.9807 33.275 29.7182 30.9025 28.9582 27.0637C28.1258 23.5723 26.7458 20.2347 24.8695 17.175C23.1618 14.0964 20.9929 11.2973 18.4382 8.87497C15.4082 6.18497 12.9507 5.58372 11.9495 6.16372C11.6376 6.41748 11.3816 6.73307 11.1977 7.09061C11.0137 7.44816 10.9058 7.83992 10.8807 8.24122C10.6821 9.72634 10.7469 11.2348 11.072 12.6975C11.8731 16.2662 13.2386 19.6842 15.117 22.8225L15.1157 22.82Z" fill="#00D8FF"/>
</svg>
