<svg width="65" height="64" viewBox="0 0 65 64" fill="none" xmlns="http://www.w3.org/2000/svg">
<path d="M34.1095 35.1144L28.9594 34.2136C28.9313 34.2136 28.9031 34.1854 28.9031 34.1572C28.9031 34.1291 28.875 34.1009 28.875 34.0728L29.7756 28.9209C29.7756 28.8927 29.8037 28.8646 29.8318 28.8646C29.86 28.8646 29.8881 28.8364 29.9163 28.8364L35.0664 29.7373C35.1227 29.7373 35.1508 29.7936 35.1508 29.8499L34.2502 35.0018C34.2502 35.03 34.2221 35.0581 34.1939 35.0581C34.1658 35.1144 34.1377 35.1144 34.1095 35.1144ZM29.0439 34.0446L34.0814 34.9174L34.9538 29.8781L29.9163 29.0053L29.0439 34.0446Z" fill="#FBDFE1"/>
<path d="M33.9988 35.5646H33.9707L28.4829 34.1007C28.4266 34.0725 28.3984 34.0162 28.3984 33.9599L29.8619 28.4702C29.8619 28.442 29.89 28.4139 29.9181 28.4139C29.9463 28.4139 29.9744 28.3857 30.0026 28.4139L35.4904 29.8778C35.5467 29.906 35.5748 29.9623 35.5748 30.0186L34.1114 35.5083C34.1114 35.5365 34.0832 35.5646 34.0551 35.5646C34.0551 35.5646 34.027 35.5646 33.9988 35.5646ZM28.5954 33.9599L33.9707 35.3957L35.4059 30.0186L30.0307 28.5828L28.5954 33.9599Z" fill="#FBDFE1"/>
<path d="M33.8349 36.0435H33.8068L28.0094 33.932C27.9813 33.932 27.9531 33.9039 27.9531 33.8757C27.9531 33.8476 27.9531 33.8194 27.9531 33.7913L30.0638 27.9919C30.0638 27.9637 30.092 27.9355 30.1201 27.9355C30.1482 27.9355 30.1764 27.9355 30.2045 27.9355L36.0019 30.047C36.0301 30.047 36.0582 30.0751 36.0582 30.1033C36.0582 30.1314 36.0582 30.1596 36.0582 30.1877L33.9475 35.9872C33.9475 36.0153 33.9194 36.0435 33.8912 36.0435C33.8912 36.0435 33.8631 36.0435 33.8349 36.0435ZM28.122 33.7913L33.8068 35.8746L35.8893 30.1877L30.2045 28.1045L28.122 33.7913Z" fill="#FBDFE1"/>
<path d="M33.6321 36.5501C33.604 36.5501 33.604 36.5501 33.5758 36.5501L27.497 33.7067C27.4407 33.6786 27.4126 33.6223 27.4407 33.566L30.2831 27.485C30.2831 27.4569 30.3113 27.4287 30.3394 27.4287C30.3676 27.4287 30.3957 27.4287 30.4238 27.4287L36.5026 30.2721C36.5308 30.2721 36.5589 30.3003 36.5589 30.3284C36.5589 30.3566 36.5589 30.3847 36.5589 30.4129L33.7165 36.4938C33.7165 36.522 33.6884 36.5501 33.6602 36.5501H33.6321ZM27.6096 33.566L33.604 36.3531L36.3901 30.3566L30.3957 27.5976L27.6096 33.566Z" fill="#FBDFE1"/>
<path d="M33.3222 37.085C33.294 37.085 33.294 37.085 33.2659 37.0569L26.9338 33.397C26.8775 33.3689 26.8494 33.2844 26.9057 33.2281L30.5642 26.8938C30.5924 26.8375 30.6768 26.8093 30.7331 26.8657L37.0652 30.5255C37.1214 30.5536 37.1496 30.6381 37.0933 30.6944L33.4348 37.0287C33.4066 37.0569 33.4066 37.085 33.3785 37.085C33.3503 37.085 33.3503 37.085 33.3222 37.085ZM27.0745 33.2844L33.294 36.8879L36.8963 30.6662L30.6768 27.0627L27.0745 33.2844Z" fill="#FBDFE1"/>
<path d="M32.9573 37.6199C32.9291 37.6199 32.901 37.6199 32.901 37.5917L26.4 33.031C26.3719 33.0029 26.3438 32.9747 26.3438 32.9466C26.3438 32.9184 26.3437 32.8903 26.3719 32.8621L30.931 26.3589C30.9591 26.3026 31.0436 26.3026 31.0998 26.3307L37.6008 30.8915C37.6571 30.9196 37.6571 31.0041 37.6289 31.0604L33.0698 37.5636C33.0417 37.5917 33.0135 37.6199 32.9573 37.6199C32.9854 37.6199 32.9854 37.6199 32.9573 37.6199ZM26.5407 32.9466L32.9573 37.451L37.4601 31.0322L31.0436 26.5278L26.5407 32.9466Z" fill="#FBDFE1"/>
<path d="M32.5355 38.1828C32.5073 38.1828 32.4792 38.1828 32.451 38.1547L25.8375 32.6086C25.8094 32.5805 25.8094 32.5523 25.7812 32.5242C25.7812 32.496 25.7812 32.4679 25.8094 32.4397L31.3535 25.8239C31.3816 25.7957 31.4098 25.7957 31.4379 25.7676C31.4661 25.7676 31.4942 25.7676 31.5223 25.7957L38.1358 31.3418C38.164 31.3699 38.164 31.3981 38.1921 31.4262C38.1921 31.4544 38.1921 31.4825 38.164 31.5107L32.6199 38.1265C32.5918 38.1547 32.5636 38.1828 32.5355 38.1828ZM25.9782 32.496L32.5073 37.9858L37.9951 31.4544L31.4661 25.9646L25.9782 32.496Z" fill="#FBDFE1"/>
<path d="M32.0042 38.746C31.9761 38.746 31.9479 38.746 31.9198 38.7179L25.2781 32.0739C25.25 32.0457 25.25 32.0176 25.25 31.9894C25.25 31.9613 25.25 31.9331 25.2781 31.905L31.9198 25.261C31.9761 25.2047 32.0605 25.2047 32.0887 25.261L38.7303 31.905C38.7584 31.9331 38.7584 31.9613 38.7584 31.9894C38.7584 32.0176 38.7584 32.0457 38.7303 32.0739L32.0887 38.7179C32.0605 38.7179 32.0324 38.746 32.0042 38.746ZM25.447 31.9894L32.0042 38.549L38.5614 31.9894L32.0042 25.4299L25.447 31.9894Z" fill="#FBDFE1"/>
<path d="M31.352 39.2811C31.2957 39.2811 31.2676 39.2529 31.2676 39.2248L24.7104 31.4265C24.6541 31.3702 24.6822 31.2858 24.7385 31.2576L32.534 24.6981C32.5622 24.6699 32.5903 24.6699 32.6184 24.6699C32.6466 24.6699 32.6747 24.6981 32.7029 24.7262L39.2601 32.5245C39.3164 32.5808 39.2882 32.6652 39.2319 32.6934L31.4364 39.2529C31.4364 39.2811 31.4083 39.2811 31.352 39.2811ZM24.8792 31.3702L31.3802 39.1121L39.1194 32.6089L32.6184 24.867L24.8792 31.3702Z" fill="#FBDFE1"/>
<path d="M30.6212 39.8157C30.5649 39.8157 30.5368 39.7876 30.5087 39.7594L24.1766 30.6943C24.1484 30.6661 24.1484 30.638 24.1484 30.6098C24.1484 30.5817 24.1766 30.5535 24.2047 30.5254L33.2666 24.1629C33.2948 24.1348 33.3229 24.1348 33.3511 24.1348C33.3792 24.1348 33.4073 24.1629 33.4355 24.1911L39.7957 33.2562C39.8239 33.2843 39.8239 33.3125 39.8239 33.3406C39.8239 33.3688 39.7957 33.3969 39.7676 33.4251L30.7057 39.8157C30.6775 39.8157 30.6494 39.8157 30.6212 39.8157ZM24.3454 30.638L30.6494 39.6468L39.655 33.3406L33.3511 24.3318L24.3454 30.638Z" fill="#FBDFE1"/>
<path d="M29.8051 40.3508H29.7769C29.7488 40.3508 29.7206 40.3226 29.6925 40.2945L23.6418 29.8499C23.6137 29.7936 23.6137 29.7092 23.6981 29.681L34.139 23.6564C34.1672 23.6282 34.1953 23.6282 34.2516 23.6564C34.2797 23.6564 34.3079 23.6845 34.336 23.7127L40.3585 34.1572C40.3867 34.2136 40.3867 34.298 40.3022 34.3262L29.8613 40.3226C29.8332 40.3508 29.8051 40.3508 29.8051 40.3508ZM23.8107 29.7936L29.8051 40.1537L40.1615 34.1572L34.1672 23.7971L23.8107 29.7936Z" fill="#FBDFE1"/>
<path d="M28.8161 40.8294C28.788 40.8294 28.788 40.8294 28.7599 40.8294C28.7317 40.8294 28.7036 40.8012 28.6754 40.7449L23.1595 28.8646C23.1313 28.8083 23.1595 28.7238 23.2158 28.6675L35.0919 23.1215C35.1201 23.0933 35.1764 23.0933 35.2045 23.1215C35.2327 23.1215 35.2608 23.1496 35.2889 23.2059L40.833 35.0863C40.8612 35.1426 40.833 35.227 40.7767 35.2833L28.9006 40.8294C28.8724 40.8294 28.8443 40.8294 28.8161 40.8294ZM23.3283 28.8364L28.8443 40.6323L40.636 35.1144L35.1201 23.3185L23.3283 28.8364Z" fill="#FBDFE1"/>
<path d="M27.7516 41.2517C27.7234 41.2517 27.7234 41.2517 27.6953 41.2517C27.6671 41.2236 27.639 41.1954 27.6109 41.1673L22.7422 27.7667C22.7422 27.7385 22.7422 27.6822 22.7422 27.6541C22.7703 27.6259 22.7985 27.5978 22.8266 27.5696L36.1943 22.6992C36.2225 22.6992 36.2788 22.6992 36.3069 22.6992C36.3351 22.7274 36.3632 22.7555 36.3913 22.7837L41.26 36.1561C41.2882 36.2406 41.26 36.325 41.1756 36.325L27.8079 41.1954C27.7797 41.2517 27.7516 41.2517 27.7516 41.2517ZM22.911 27.7385L27.7516 41.0546L41.063 36.2124L36.2225 22.8963L22.911 27.7385Z" fill="#FBDFE1"/>
<path d="M26.5396 41.5894C26.4833 41.5894 26.427 41.5331 26.3989 41.4768L22.3745 26.556C22.3464 26.4715 22.4027 26.3871 22.4871 26.3871L37.4308 22.3894C37.4589 22.3894 37.5152 22.3894 37.5434 22.4176C37.5715 22.4457 37.5996 22.4739 37.5996 22.502L41.5959 37.451C41.624 37.5354 41.5678 37.6199 41.4833 37.6199L26.5396 41.6176C26.5396 41.5894 26.5396 41.5894 26.5396 41.5894ZM22.5434 26.5278L26.5396 41.4205L41.427 37.4228L37.4308 22.5302L22.5434 26.5278Z" fill="#FBDFE1"/>
<path d="M25.1921 41.8708C25.1076 41.8708 25.0513 41.8145 25.0513 41.7582L22.1245 25.1764C22.0964 25.0919 22.1527 25.0074 22.2371 25.0074L38.7849 22.0796C38.8694 22.0514 38.9538 22.1077 38.9538 22.1922L41.8806 38.7459C41.8806 38.774 41.8806 38.8303 41.8525 38.8585C41.8243 38.8866 41.7962 38.9148 41.7399 38.9148L25.1921 41.8708ZM22.2934 25.1764L25.1921 41.7019L41.7118 38.8022L38.8131 22.2767L22.2934 25.1764Z" fill="#FBDFE1"/>
<path d="M23.6949 42.0397C23.6667 42.0397 23.6104 42.0397 23.5823 42.0115C23.5541 41.9834 23.526 41.9552 23.526 41.8989L21.9219 23.6843C21.9219 23.5998 21.9782 23.5153 22.0626 23.5153L40.2708 21.9106C40.299 21.9106 40.3553 21.9106 40.3834 21.9388C40.4116 21.9669 40.4397 21.9951 40.4397 22.0514L42.0438 40.2661C42.0438 40.3505 41.9875 40.435 41.9031 40.435L23.6949 42.0397ZM40.2708 22.1077L22.0907 23.7124L23.6949 41.8989L41.875 40.2942L40.2708 22.1077Z" fill="#FBDFE1"/>
<path d="M41.9282 42.0679H22.0595C21.9751 42.0679 21.8906 41.9834 21.8906 41.899V22.0515C21.8906 21.967 21.9751 21.8826 22.0595 21.8826H41.9282C42.0126 21.8826 42.097 21.967 42.097 22.0515V41.9271C42.0689 42.0116 42.0126 42.0679 41.9282 42.0679ZM22.0595 22.0515V41.899H41.9V22.0515H22.0595Z" fill="#FBDFE1"/>
<path d="M41.7948 43.8414L20.2939 41.9552C20.2094 41.9552 20.125 41.8708 20.125 41.7582L22.0106 20.2778C22.0106 20.1933 22.095 20.1089 22.2076 20.1089L43.7085 21.9951C43.7929 21.9951 43.8773 22.0796 43.8773 22.1922L41.9918 43.7007C41.9636 43.7851 41.9074 43.8414 41.7948 43.8414ZM22.1794 20.2778L20.2939 41.7863L41.7948 43.6725L43.6803 22.164L22.1794 20.2778Z" fill="#FBDFE1"/>
<path d="M41.5161 45.756H41.488L18.3829 41.6739C18.3266 41.6739 18.2985 41.6458 18.2703 41.5895C18.2422 41.5613 18.2422 41.505 18.2422 41.4487L22.3229 18.3355C22.351 18.251 22.4354 18.1666 22.5199 18.1947L45.6249 22.2768C45.6812 22.2768 45.7094 22.305 45.7375 22.3613C45.7656 22.3895 45.7656 22.4458 45.7656 22.5021L41.685 45.6153C41.685 45.6716 41.6568 45.6997 41.6005 45.7279C41.6005 45.756 41.5443 45.756 41.5161 45.756ZM22.4917 18.3918L18.411 41.505L41.5161 45.5871L45.5968 22.4739L22.4917 18.3918Z" fill="#FBDFE1"/>
<path d="M41.0015 47.783C40.9733 47.783 40.9733 47.783 40.9452 47.783L16.3204 41.1671C16.2641 41.1671 16.236 41.1108 16.2078 41.0827C16.1797 41.0264 16.1797 40.9982 16.1797 40.9419L22.7932 16.3085C22.7932 16.2522 22.8495 16.224 22.8776 16.1959C22.9339 16.1677 22.9621 16.1677 23.0183 16.1677L47.6431 22.7836C47.6994 22.7836 47.7275 22.8399 47.7557 22.868C47.7838 22.9243 47.7838 22.9525 47.7838 23.0088L41.1703 47.6422C41.1703 47.6985 41.114 47.7267 41.0859 47.7548C41.0859 47.783 41.0296 47.783 41.0015 47.783ZM22.9621 16.3366L16.3485 40.9982V41.0264L40.9733 47.6422H41.0015L47.615 23.0088V22.9806L22.9621 16.3366Z" fill="#FBDFE1"/>
<path d="M40.2703 49.9505C40.2422 49.9505 40.214 49.9505 40.214 49.9505L14.154 40.4631C14.0414 40.435 14.0133 40.3224 14.0414 40.2098L23.5255 14.1406C23.5536 14.0843 23.5817 14.0561 23.638 14.028C23.6943 13.9998 23.7506 13.9998 23.7787 14.028L49.8388 23.5153C49.9513 23.5435 49.9795 23.6561 49.9513 23.7687L40.4673 49.8379C40.4392 49.8942 40.3547 49.9505 40.2703 49.9505ZM23.7225 14.1969C23.6943 14.1969 23.6943 14.1969 23.7225 14.1969L14.2103 40.2661C14.2103 40.2661 14.2103 40.2942 14.2384 40.2942L40.2984 49.7816C40.2984 49.7816 40.3266 49.7816 40.3266 49.7535L49.8106 23.6843C49.8106 23.6843 49.8106 23.6561 49.7825 23.6561L23.7225 14.1969Z" fill="#FBDFE1"/>
<path d="M39.2867 52.2028C39.2586 52.2028 39.2304 52.2028 39.2023 52.1747L11.904 39.4498C11.7914 39.3935 11.7633 39.2808 11.7914 39.1682L24.5119 11.8603C24.5681 11.7477 24.6807 11.7196 24.7933 11.7477L52.0916 24.5008C52.1479 24.5289 52.176 24.5571 52.2042 24.6134C52.2323 24.6697 52.2323 24.726 52.2042 24.7823L39.4837 52.0902C39.4274 52.1747 39.343 52.2028 39.2867 52.2028ZM24.7088 11.9166C24.7088 11.9166 24.6807 11.9166 24.6807 11.9448L11.9603 39.2527C11.9603 39.2808 11.9603 39.2808 11.9884 39.309L39.2867 52.0339C39.3149 52.0339 39.3149 52.0339 39.343 52.0058L52.0634 24.6978C52.0634 24.6697 52.0634 24.6697 52.0353 24.6415L24.7088 11.9166Z" fill="#FBDFE1"/>
<path d="M37.9991 54.5675C37.971 54.5675 37.9147 54.5675 37.8865 54.5394L9.51882 38.1546C9.40625 38.0983 9.37811 37.9575 9.43439 37.8731L25.8134 9.49537C25.8415 9.43906 25.8978 9.41091 25.9541 9.38275C26.0104 9.3546 26.0667 9.38275 26.1229 9.41091L54.4907 25.7957C54.547 25.8238 54.5751 25.8801 54.6032 25.9364C54.6314 25.9927 54.6032 26.049 54.5751 26.1053L38.1961 54.483C38.168 54.5394 38.1117 54.5675 38.0554 54.5957C38.0273 54.5675 37.9991 54.5675 37.9991 54.5675ZM26.0104 9.55167C25.9822 9.55167 25.9822 9.55167 25.9541 9.57982L9.60325 37.9575C9.60325 37.9857 9.60325 38.0138 9.63139 38.0138L37.9991 54.3986H38.0273C38.0273 54.3986 38.0554 54.3986 38.0554 54.3704L54.4344 25.9927V25.9646C54.4344 25.9646 54.4344 25.9364 54.4062 25.9364L26.0104 9.55167Z" fill="#FBDFE1"/>
<path d="M36.3652 57.017C36.309 57.017 36.2808 56.9889 36.2245 56.9889L7.0688 36.5502C7.01252 36.522 6.98438 36.4657 6.98438 36.4094C6.98438 36.3531 6.98437 36.2968 7.01252 36.2405L27.444 7.04637C27.4722 6.99007 27.5285 6.96191 27.5848 6.96191C27.641 6.96191 27.6973 6.96191 27.7536 6.99007L56.9093 27.4288C56.9656 27.4569 56.9938 27.5132 56.9938 27.5695C56.9938 27.6258 56.9938 27.6821 56.9656 27.7385L36.5341 56.9044C36.506 56.9607 36.4497 56.9889 36.3934 56.9889C36.3934 57.017 36.3934 57.017 36.3652 57.017ZM27.6129 7.13083C27.5848 7.13083 27.5848 7.13083 27.5566 7.15898L7.15323 36.325C7.15323 36.325 7.15323 36.3531 7.15323 36.3813C7.15323 36.4094 7.15323 36.4094 7.18137 36.4094L36.3371 56.82C36.3371 56.82 36.3652 56.82 36.3934 56.82C36.4215 56.82 36.4215 56.82 36.4215 56.7918L56.853 27.6258C56.853 27.6258 56.853 27.5977 56.853 27.5695C56.853 27.5414 56.8531 27.5414 56.8249 27.5414L27.6692 7.13083C27.641 7.13083 27.641 7.13083 27.6129 7.13083Z" fill="#FBDFE1"/>
<path d="M34.3913 59.4943C34.335 59.4943 34.2788 59.4662 34.2506 59.438L4.58832 34.5512C4.47575 34.4668 4.47575 34.326 4.56018 34.2134L29.4382 4.56882C29.5227 4.45621 29.6634 4.45621 29.7759 4.54067L59.4101 29.3993C59.5227 29.4838 59.5227 29.6245 59.4382 29.7372L34.5602 59.4099C34.532 59.4662 34.4758 59.4943 34.3913 59.4943ZM29.6071 4.65328C29.5789 4.65328 29.5789 4.65328 29.5508 4.68143L4.67275 34.326C4.64461 34.3542 4.64461 34.4105 4.67275 34.4105L34.3069 59.2973C34.335 59.2973 34.335 59.3254 34.3632 59.3254C34.3913 59.3254 34.3913 59.3254 34.4195 59.2973L59.2975 29.6527C59.3257 29.6245 59.3257 29.5682 59.2975 29.5682L29.6634 4.65328C29.6352 4.65328 29.6352 4.65328 29.6071 4.65328Z" fill="#FBDFE1"/>
<path d="M32 62C31.9437 62 31.8593 61.9718 31.8311 61.9155L2.08443 32.1584C1.97186 32.0457 1.97186 31.905 2.08443 31.7924L31.803 2.06334C31.8874 1.97889 32.0563 1.97889 32.1689 2.06334L61.9156 31.8205C62.0281 31.9331 62.0281 32.0739 61.9156 32.1865L32.1689 61.9155C32.1126 61.9718 32.0563 62 32 62ZM32 2.1478C31.9719 2.1478 31.9437 2.1478 31.9437 2.17595L2.197 31.9331C2.16886 31.9613 2.16886 31.9613 2.16886 31.9894C2.16886 32.0176 2.16886 32.0457 2.197 32.0457L31.9437 61.8029C31.9719 61.8311 32.0281 61.8311 32.0563 61.8029L61.803 32.0457C61.8311 32.0176 61.8311 32.0176 61.8311 31.9894C61.8311 31.9613 61.8311 31.9331 61.803 31.9331L32.0563 2.17595C32.0281 2.1478 32.0281 2.1478 32 2.1478Z" fill="#FBDFE1"/>
</svg>
