<svg width="1926" height="728" viewBox="0 0 1926 728" fill="none" xmlns="http://www.w3.org/2000/svg">
<rect x="0.5" y="0.5" width="106" height="90" fill="#111111" stroke="#2C1919"/>
<rect x="107.5" y="0.5" width="106" height="90" fill="#111111" stroke="#2C1919"/>
<rect x="214.5" y="0.5" width="106" height="90" fill="#111111" stroke="#111111"/>
<rect x="321.5" y="0.5" width="106" height="90" fill="#111111" stroke="#2C1919"/>
<rect x="428.5" y="0.5" width="106" height="90" fill="#111111" stroke="#2C1919"/>
<rect x="535.5" y="0.5" width="106" height="90" fill="#111111" stroke="#111111"/>
<rect x="642.5" y="0.5" width="106" height="90" fill="#111111" stroke="#2C1919"/>
<rect x="749.5" y="0.5" width="106" height="90" fill="#111111" stroke="#2C1919"/>
<rect x="856.5" y="0.5" width="106" height="90" fill="#2C1919" stroke="#111111"/>
<rect x="963.5" y="0.5" width="106" height="90" fill="#111111" stroke="#2C1919"/>
<rect x="1070.5" y="0.5" width="106" height="90" fill="#111111" stroke="#2C1919"/>
<rect x="1177.5" y="0.5" width="106" height="90" fill="#111111" stroke="#2C1919"/>
<rect x="1284.5" y="0.5" width="106" height="90" fill="#111111" stroke="#2C1919"/>
<rect x="1391.5" y="0.5" width="106" height="90" fill="#111111" stroke="#2C1919"/>
<rect x="1498.5" y="0.5" width="106" height="90" fill="#111111" stroke="#2C1919"/>
<rect x="1605.5" y="0.5" width="106" height="90" fill="#111111" stroke="#2C1919"/>
<rect x="1712.5" y="0.5" width="106" height="90" fill="#111111" stroke="#2C1919"/>
<rect x="1819.5" y="0.5" width="106" height="90" fill="#111111" stroke="#111111"/>
<rect x="0.5" y="91.5" width="106" height="90" fill="#2C1919" stroke="#111111"/>
<rect x="107.5" y="91.5" width="106" height="90" fill="#111111" stroke="#2C1919"/>
<rect x="214.5" y="91.5" width="106" height="90" fill="#111111" stroke="#2C1919"/>
<rect x="321.5" y="91.5" width="106" height="90" fill="#111111" stroke="#2C1919"/>
<rect x="428.5" y="91.5" width="106" height="90" fill="#2C1919" stroke="#111111"/>
<rect x="535.5" y="91.5" width="106" height="90" fill="#111111" stroke="#2C1919"/>
<rect x="642.5" y="91.5" width="106" height="90" fill="#111111" stroke="#2C1919"/>
<rect x="749.5" y="91.5" width="106" height="90" fill="#111111" stroke="#2C1919"/>
<rect x="856.5" y="91.5" width="106" height="90" fill="#111111" stroke="#2C1919"/>
<rect x="963.5" y="91.5" width="106" height="90" fill="#111111" stroke="#2C1919"/>
<rect x="1070.5" y="91.5" width="106" height="90" fill="#111111" stroke="#111111"/>
<rect x="1177.5" y="91.5" width="106" height="90" fill="#111111" stroke="#2C1919"/>
<rect x="1284.5" y="91.5" width="106" height="90" fill="#111111" stroke="#2C1919"/>
<rect x="1391.5" y="91.5" width="106" height="90" fill="#111111" stroke="#2C1919"/>
<rect x="1498.5" y="91.5" width="106" height="90" fill="#111111" stroke="#111111"/>
<rect x="1605.5" y="91.5" width="106" height="90" fill="#111111" stroke="#2C1919"/>
<rect x="1712.5" y="91.5" width="106" height="90" fill="#111111" stroke="#2C1919"/>
<rect x="1819.5" y="91.5" width="106" height="90" fill="#2C1919" stroke="#111111"/>
<rect x="0.5" y="182.5" width="106" height="90" fill="#111111" stroke="#2C1919"/>
<rect x="107.5" y="182.5" width="106" height="90" fill="#111111" stroke="#2C1919"/>
<rect x="214.5" y="182.5" width="106" height="90" fill="#111111" stroke="#2C1919"/>
<rect x="321.5" y="182.5" width="106" height="90" fill="#111111" stroke="#2C1919"/>
<rect x="428.5" y="182.5" width="106" height="90" fill="#111111" stroke="#2C1919"/>
<rect x="535.5" y="182.5" width="106" height="90" fill="#111111" stroke="#2C1919"/>
<rect x="642.5" y="182.5" width="106" height="90" fill="#111111" stroke="#2C1919"/>
<rect x="856.5" y="182.5" width="106" height="90" fill="#111111" stroke="#2C1919"/>
<rect x="963.5" y="182.5" width="106" height="90" fill="#111111" stroke="#2C1919"/>
<rect x="1070.5" y="182.5" width="106" height="90" fill="#111111" stroke="#2C1919"/>
<rect x="1177.5" y="182.5" width="106" height="90" fill="#111111" stroke="#2C1919"/>
<rect x="1284.5" y="182.5" width="106" height="90" fill="#111111" stroke="#2C1919"/>
<rect x="1391.5" y="182.5" width="106" height="90" fill="#111111" stroke="#2C1919"/>
<rect x="1498.5" y="182.5" width="106" height="90" fill="#111111" stroke="#2C1919"/>
<rect x="1605.5" y="182.5" width="106" height="90" fill="#111111" stroke="#2C1919"/>
<rect x="1712.5" y="182.5" width="106" height="90" fill="#111111" stroke="#2C1919"/>
<rect x="1819.5" y="182.5" width="106" height="90" fill="#111111" stroke="#2C1919"/>
<rect x="0.5" y="273.5" width="106" height="90" fill="#111111" stroke="#2C1919"/>
<rect x="107.5" y="273.5" width="106" height="90" fill="#111111" stroke="#2C1919"/>
<rect x="214.5" y="273.5" width="106" height="90" fill="#111111" stroke="#111111"/>
<rect x="321.5" y="273.5" width="106" height="90" fill="#111111" stroke="#2C1919"/>
<rect x="428.5" y="273.5" width="106" height="90" fill="#111111" stroke="#2C1919"/>
<rect x="535.5" y="273.5" width="106" height="90" fill="#111111" stroke="#2C1919"/>
<rect x="642.5" y="273.5" width="106" height="90" fill="#111111" stroke="#2C1919"/>
<rect x="749.5" y="273.5" width="106" height="90" fill="#111111" stroke="#2C1919"/>
<rect x="856.5" y="273.5" width="106" height="90" fill="#111111" stroke="#2C1919"/>
<rect x="963.5" y="273.5" width="106" height="90" fill="#111111" stroke="#2C1919"/>
<rect x="1070.5" y="273.5" width="106" height="90" fill="#111111" stroke="#2C1919"/>
<rect x="1177.5" y="273.5" width="106" height="90" fill="#111111" stroke="#2C1919"/>
<rect x="1284.5" y="273.5" width="106" height="90" fill="#111111" stroke="#111111"/>
<rect x="1391.5" y="273.5" width="106" height="90" fill="#111111" stroke="#2C1919"/>
<rect x="1498.5" y="273.5" width="106" height="90" fill="#111111" stroke="#2C1919"/>
<rect x="1605.5" y="273.5" width="106" height="90" fill="#111111" stroke="#2C1919"/>
<rect x="1712.5" y="273.5" width="106" height="90" fill="#111111" stroke="#2C1919"/>
<rect x="1819.5" y="273.5" width="106" height="90" fill="#111111" stroke="#111111"/>
<rect x="0.5" y="364.5" width="106" height="90" fill="#111111" stroke="#111111"/>
<rect x="107.5" y="364.5" width="106" height="90" fill="#111111" stroke="#2C1919"/>
<rect x="214.5" y="364.5" width="106" height="90" fill="#111111" stroke="#2C1919"/>
<rect x="321.5" y="364.5" width="106" height="90" fill="#111111" stroke="#2C1919"/>
<rect x="428.5" y="364.5" width="106" height="90" fill="#111111" stroke="#2C1919"/>
<rect x="535.5" y="364.5" width="106" height="90" fill="#111111" stroke="#111111"/>
<rect x="642.5" y="364.5" width="106" height="90" fill="#111111" stroke="#2C1919"/>
<rect x="749.5" y="364.5" width="106" height="90" fill="#111111" stroke="#2C1919"/>
<rect x="856.5" y="364.5" width="106" height="90" fill="#111111" stroke="#2C1919"/>
<rect x="963.5" y="364.5" width="106" height="90" fill="#111111" stroke="#111111"/>
<rect x="1070.5" y="364.5" width="106" height="90" fill="#111111" stroke="#2C1919"/>
<rect x="1177.5" y="364.5" width="106" height="90" fill="#111111" stroke="#2C1919"/>
<rect x="1284.5" y="364.5" width="106" height="90" fill="#111111" stroke="#2C1919"/>
<rect x="1391.5" y="364.5" width="106" height="90" fill="#111111" stroke="#2C1919"/>
<rect x="1498.5" y="364.5" width="106" height="90" fill="#111111" stroke="#2C1919"/>
<rect x="1605.5" y="364.5" width="106" height="90" fill="#111111" stroke="#2C1919"/>
<rect x="1712.5" y="364.5" width="106" height="90" fill="#2C1919" stroke="#111111"/>
<rect x="1819.5" y="364.5" width="106" height="90" fill="#111111" stroke="#2C1919"/>
<rect x="0.5" y="455.5" width="106" height="90" fill="#111111" stroke="#2C1919"/>
<rect x="107.5" y="455.5" width="106" height="90" fill="#111111" stroke="#2C1919"/>
<rect x="214.5" y="455.5" width="106" height="90" fill="#2C1919" stroke="#111111"/>
<rect x="321.5" y="455.5" width="106" height="90" fill="#111111" stroke="#2C1919"/>
<rect x="428.5" y="455.5" width="106" height="90" fill="#111111" stroke="#2C1919"/>
<rect x="535.5" y="455.5" width="106" height="90" fill="#111111" stroke="#2C1919"/>
<rect x="642.5" y="455.5" width="106" height="90" fill="#111111" stroke="#2C1919"/>
<rect x="749.5" y="455.5" width="106" height="90" fill="#111111" stroke="#2C1919"/>
<rect x="856.5" y="455.5" width="106" height="90" fill="#111111" stroke="#2C1919"/>
<rect x="963.5" y="455.5" width="106" height="90" fill="#111111" stroke="#2C1919"/>
<rect x="1070.5" y="455.5" width="106" height="90" fill="#111111" stroke="#2C1919"/>
<rect x="1177.5" y="455.5" width="106" height="90" fill="#111111" stroke="#2C1919"/>
<rect x="1284.5" y="455.5" width="106" height="90" fill="#111111" stroke="#111111"/>
<rect x="1391.5" y="455.5" width="106" height="90" fill="#111111" stroke="#2C1919"/>
<rect x="1498.5" y="455.5" width="106" height="90" fill="#111111" stroke="#2C1919"/>
<rect x="1605.5" y="455.5" width="106" height="90" fill="#111111" stroke="#2C1919"/>
<rect x="1712.5" y="455.5" width="106" height="90" fill="#111111" stroke="#2C1919"/>
<rect x="1819.5" y="455.5" width="106" height="90" fill="#111111" stroke="#2C1919"/>
<rect x="0.5" y="546.5" width="106" height="90" fill="#111111" stroke="#2C1919"/>
<rect x="107.5" y="546.5" width="106" height="90" fill="#111111" stroke="#2C1919"/>
<rect x="214.5" y="546.5" width="106" height="90" fill="#111111" stroke="#2C1919"/>
<rect x="321.5" y="546.5" width="106" height="90" fill="#111111" stroke="#2C1919"/>
<rect x="428.5" y="546.5" width="106" height="90" fill="#111111" stroke="#111111"/>
<rect x="535.5" y="546.5" width="106" height="90" fill="#111111" stroke="#2C1919"/>
<rect x="642.5" y="546.5" width="106" height="90" fill="#111111" stroke="#2C1919"/>
<rect x="749.5" y="546.5" width="106" height="90" fill="#111111" stroke="#2C1919"/>
<rect x="856.5" y="546.5" width="106" height="90" fill="#111111" stroke="#2C1919"/>
<rect x="963.5" y="546.5" width="106" height="90" fill="#111111" stroke="#2C1919"/>
<rect x="1070.5" y="546.5" width="106" height="90" fill="#111111" stroke="#2C1919"/>
<rect x="1177.5" y="546.5" width="106" height="90" fill="#111111" stroke="#2C1919"/>
<rect x="1284.5" y="546.5" width="106" height="90" fill="#111111" stroke="#2C1919"/>
<rect x="1391.5" y="546.5" width="106" height="90" fill="#111111" stroke="#2C1919"/>
<rect x="1498.5" y="546.5" width="106" height="90" fill="#111111" stroke="#2C1919"/>
<rect x="1605.5" y="546.5" width="106" height="90" fill="#111111" stroke="#2C1919"/>
<rect x="1712.5" y="546.5" width="106" height="90" fill="#111111" stroke="#2C1919"/>
<rect x="1819.5" y="546.5" width="106" height="90" fill="#111111" stroke="#2C1919"/>
<rect x="0.5" y="637.5" width="106" height="90" fill="#111111" stroke="#2C1919"/>
<rect x="107.5" y="637.5" width="106" height="90" fill="#111111" stroke="#111111"/>
<rect x="214.5" y="637.5" width="106" height="90" fill="#111111" stroke="#2C1919"/>
<rect x="321.5" y="637.5" width="106" height="90" fill="#111111" stroke="#2C1919"/>
<rect x="428.5" y="637.5" width="106" height="90" fill="#111111" stroke="#2C1919"/>
<rect x="535.5" y="637.5" width="106" height="90" fill="#111111" stroke="#2C1919"/>
<rect x="642.5" y="637.5" width="106" height="90" fill="#111111" stroke="#2C1919"/>
<rect x="749.5" y="637.5" width="106" height="90" fill="#111111" stroke="#2C1919"/>
<rect x="856.5" y="637.5" width="106" height="90" fill="#111111" stroke="#2C1919"/>
<rect x="963.5" y="637.5" width="106" height="90" fill="#111111" stroke="#2C1919"/>
<rect x="1070.5" y="637.5" width="106" height="90" fill="#111111" stroke="#2C1919"/>
<rect x="1177.5" y="637.5" width="106" height="90" fill="#111111" stroke="#2C1919"/>
<rect x="1284.5" y="637.5" width="106" height="90" fill="#2C1919" stroke="#111111"/>
<rect x="1391.5" y="637.5" width="106" height="90" fill="#111111" stroke="#2C1919"/>
<rect x="1498.5" y="637.5" width="106" height="90" fill="#111111" stroke="#111111"/>
<rect x="1605.5" y="637.5" width="106" height="90" fill="#111111" stroke="#2C1919"/>
<rect x="1712.5" y="637.5" width="106" height="90" fill="#111111" stroke="#111111"/>
<rect x="1819.5" y="637.5" width="106" height="90" fill="#2C1919" stroke="#111111"/>
<rect x="749.5" y="182.5" width="106" height="90" fill="#111111" stroke="#111111"/>
</svg>
