<svg width="36" height="36" viewBox="0 0 36 36" fill="none" xmlns="http://www.w3.org/2000/svg">
<path fill-rule="evenodd" clip-rule="evenodd" d="M33.8703 11.5126C33.7171 10.3499 33.2731 9.24464 32.5793 8.29913C31.7195 7.433 30.5534 6.9399 29.3331 6.92636C24.8057 6.59912 18.0008 6.59912 18.0008 6.59912C18.0008 6.59912 11.1991 6.59912 6.6652 6.92636C5.44541 6.94033 4.28003 7.4334 3.42062 8.29913C2.72218 9.24283 2.27717 10.3497 2.12802 11.5143C1.92534 13.2557 1.8161 15.0068 1.80078 16.7599V19.2142C1.8161 20.9674 1.92534 22.7184 2.12802 24.4599C2.28182 25.6248 2.7236 26.7342 3.4108 27.6864C4.39906 28.5635 5.66875 29.0559 6.98917 29.0739C9.57927 29.321 18.0024 29.4012 18.0024 29.4012C18.0024 29.4012 24.8106 29.4012 29.338 29.0739C30.5592 29.0604 31.7259 28.5667 32.5859 27.6995C33.2763 26.7519 33.7189 25.6467 33.8735 24.4844C34.0762 22.743 34.1855 20.9919 34.2008 19.2388V16.7583C34.1813 15.0052 34.071 13.2543 33.8703 11.5126ZM14.7398 22.2363V13.0408L23.5753 17.6533L14.7398 22.2363Z" fill="#D1D1D1"/>
</svg>
